<?xml version="1.0" encoding="utf-8"?>
<!-- Generator: Adobe Illustrator 23.0.2, SVG Export Plug-In . SVG Version: 6.00 Build 0)  -->
<svg version="1.1" id="Ebene_2" xmlns="http://www.w3.org/2000/svg" xmlns:xlink="http://www.w3.org/1999/xlink" x="0px" y="0px" viewBox="0 0 200 72.3" style="enable-background:new 0 0 200 72.3;" xml:space="preserve">
<path style="fill:#E60000;" d="M117,43.5c0,15-8.2,16.8-16.4,16.8c-14.1,0-17.1-7.2-17.1-17.5v-29h-5.2V11H98v2.8h-5.6V42
	c0,9.9,2.6,14.9,9.7,14.9c7.3,0,10.8-3.6,10.8-13.9V13.8h-5.2V11h14v2.8H117V43.5z M130.3,57V13.8h-5.1V11H147
	c9.3,0,13.9,5.2,13.9,11.4c0,6.5-5.9,10.2-11.2,11.3c10.3,0.9,13.1,7.5,13.1,12.4c0,9.9-8.4,13.6-16.7,13.6h-21.2V57H130.3z M152,23
	c0-4.5-2.3-9.1-7.5-9.1H139v18.7h4.9C149.4,32.6,152,28,152,23z M153.8,46.1c0-6.5-2.8-10.8-9.3-10.8H139V57h4.4
	C150.3,57,153.8,52.9,153.8,46.1z M184.5,13.2c-5.1,0-8.4,3-8.4,8.3c0,4.8,5.2,7.1,10.2,8.8c3,1,6.8,2.4,9.4,4.9
	c2.8,2.7,4.4,6.3,4.3,10.8c-0.2,8.5-6.1,14.2-16.6,14.3c-3.9,0-10.1-0.9-13.8-3l-0.4-12.8h3.1c0.2,8.6,4.3,13.1,11.4,13.1
	c5.7,0,8.8-3.8,8.8-9.6c0-5-4.1-7.1-10.4-9.2c-2-0.7-6.1-2.2-8.9-5c-2.5-2.5-3.7-5.7-3.7-9.1c0-9.9,7.1-14.2,15.9-14.2
	c3.5,0,8.7,1.2,11.8,3l0.3,11.1h-3.1C193.6,16.6,190.2,13.2,184.5,13.2z"/>
<path d="M53.8,20.9L52.5,22l1.4,4.5l-4.1-2.2l-1.4,1.1l4.6,2.5l-4.8,3.9l-1.3-1.7l1.7-1.4L47.2,27l-1.7,1.4l-1.3-1.7l1.7-1.4
	l-1.3-1.7l-8.9,7.4l8.5,6.8l1.5-1.9c1.1,0.1,1.9,0.9,2.3,1.9l-1.5,1.9l0.9,0.7c2.1-1.9,4.8-3.1,7.7-3.1c5.9,0,10.6,4.8,10.6,10.8
	c0,2-0.5,4-1.6,5.8l1.6,1.2c-0.1,1.2-1.2,2.4-2.2,2.7l-1.5-1.2c-2.1,2-4.8,3.1-7.7,3.1c-5.9,0-10.5-4.7-10.5-10.7c0-2,0.6-4,1.4-5.6
	l-0.9-0.8l-1.5,2c-1.1-0.1-2-0.9-2.3-2l1.5-1.8l-7.2-5.9v9.4l2.4,0.1c0.3,0.4,0.5,0.9,0.5,1.4c0,0.5-0.2,1.1-0.4,1.5h-2.5v1.2
	c5.2,0.9,9.5,5.3,9.5,10.6c0,5.6-4.3,10-9.5,10.8v1.9c-0.5,0.3-1.2,0.5-1.7,0.5c-0.7,0-1.4-0.2-2-0.5v-1.9
	c-5.3-0.9-9.4-5.3-9.4-10.8c0-5.3,4.1-9.8,9.4-10.6v-1.2h-2.5c-0.3-0.4-0.4-1-0.4-1.5c0-0.6,0.1-1.1,0.4-1.5H31v-9.4l-7.2,5.9
	l1.6,1.8c-0.4,1.2-1.3,1.9-2.4,2l-1.5-2l-0.9,0.8c1,1.7,1.5,3.7,1.5,5.6c0,6-4.6,10.7-10.5,10.7c-2.8,0-5.6-1.1-7.7-3.1l-1.6,1.2
	c-1-0.3-2.1-1.5-2.2-2.7l1.5-1.2C0.6,52.2,0,50.1,0,48.1c0-5.9,4.6-10.8,10.5-10.8c2.9,0,5.6,1.2,7.7,3.1l0.9-0.7l-1.5-2
	c0.4-1,1.3-1.7,2.4-1.9l1.5,1.9l8.5-6.8l-8.9-7.4l-1.3,1.7l1.7,1.4l-1.3,1.7L18.5,27l-1.3,1.5l1.7,1.4l-1.3,1.7l-4.8-3.9l4.5-2.5
	L16,24.2l-4.1,2.2l1.4-4.5l-1.3-1.1l-1.5,4.9l-4.8-3.9l1.3-1.6l1.7,1.4l1.4-1.6l-1.7-1.5l1.3-1.5l1.7,1.3l1.2-1.5l-3.8-3
	c0.4-1.2,1.2-2.2,2.3-3l20,16.3V16.3h-2v2.1h-2v-2.1h-2.1v2.1h-2.1v-6.1l4.8,2v-1.7l-4.4-1.8L27.5,9V7.4l-4.8,1.9V3h2.1v2.2H27V3h2
	v2.2h2V0.4C31.6,0.1,32.2,0,32.9,0c0.6,0,1.2,0.1,1.8,0.4v26.9l20-16.3c1.1,0.7,1.9,1.7,2.3,3l-3.8,3l1.3,1.5l1.7-1.3l1.3,1.5
	l-1.7,1.5l1.3,1.6l1.7-1.4l1.3,1.6l-4.8,3.9L53.8,20.9z M12.9,50.5c0,1.7,1.3,2.8,2.8,3l-2.5,2c-1.7-0.7-3.3-2.7-3.3-4.6
	c0-0.6,0.1-0.9,0.3-1.4c-0.2,0-0.4,0.1-0.5,0.1c-2.3,0-4.3-2.2-4.7-4.4l2.6-2c-0.1,0.3-0.1,0.5-0.1,0.7c0,1.4,1.4,2.7,2.8,2.7
	c1.5,0,3-1.3,3-2.8c0-1.9-1.4-3.1-3.3-3.1c-3.5,0-7,3.4-7,7.9c0,1.3,0.3,2.5,0.9,3.6l1.6-1.2c1.1,0.5,2,1.6,2.2,2.8l-1.6,1.2
	c1.5,1.3,3.4,1.9,5.3,1.9c4,0,7.3-3.3,7.3-6.1c0-1.7-1.2-3.1-2.9-3.1C14.2,47.6,12.9,48.8,12.9,50.5z M34.3,56.7
	c0,1.6,1.3,2.9,2.8,2.9c1.1,0,1.5-0.4,2.3-1.1v3.3c-0.8,0.4-1.6,0.7-2.5,0.7c-1.7,0-3.2-0.5-4.1-2c-1,1.5-2.5,2-4.2,2
	c-0.8,0-1.7-0.2-2.5-0.7v-3.3c0.7,0.7,1.3,1.1,2.3,1.1c1.6,0,2.8-1.3,2.8-2.9c0-1.5-1-2.9-2.7-2.9c-3,0-4.2,2.8-4.2,5.4
	c0,3.8,2.8,7.1,6.5,7.7v-2c0.6-0.3,1.2-0.4,1.8-0.4c0.7,0,1.3,0.1,1.9,0.4v2c3.4-0.5,6.5-4.1,6.5-7.7c0-2.7-1.1-5.4-4.2-5.4
	C35.4,53.8,34.3,55.2,34.3,56.7z M52.3,43.7c0,1.4,1.5,2.8,3,2.8c1.4,0,2.8-1.3,2.8-2.7c0-0.2-0.1-0.4-0.1-0.7l2.5,2
	c-0.4,2.5-2.6,4.6-5.1,4.3c0.1,0.4,0.2,0.8,0.2,1.4c0,1.8-1.6,3.9-3.3,4.6l-2.5-2c1.6-0.1,2.9-1.2,2.9-3c0-1.7-1.4-2.9-3-2.9
	c-1.7,0-2.9,1.4-2.9,3.2c0,2.1,2.5,6.1,7.4,6.1c2,0,3.8-0.6,5.3-1.9l-1.6-1.2c0.4-1.2,1.1-2.3,2.2-2.8l1.6,1.2
	c0.6-1.1,0.9-2.3,0.9-3.6c0-3.5-2.7-7.9-6.9-7.9C53.9,40.6,52.3,41.9,52.3,43.7z"/>
</svg>
