<?xml version="1.0" encoding="utf-8"?>
<!-- Generator: Adobe Illustrator 21.1.0, SVG Export Plug-In . SVG Version: 6.00 Build 0)  -->
<svg version="1.1" id="Layer_1" xmlns="http://www.w3.org/2000/svg" xmlns:xlink="http://www.w3.org/1999/xlink" x="0px" y="0px"
	 viewBox="0 0 1500 1000" style="enable-background:new 0 0 1500 1000;" xml:space="preserve">
<style type="text/css">
	.st0{fill:#000035;}
	.st1{fill:url(#SVGID_1_);}
	.st2{opacity:0.9;}
	.st3{opacity:0.7;fill:#0000FF;enable-background:new    ;}
	.st4{fill:#0000FF;}
	.st5{opacity:0.5;fill:#0000FF;enable-background:new    ;}
	.st6{opacity:0.3;fill:#0000FF;enable-background:new    ;}
	.st7{opacity:0.5;}
	.st8{opacity:0.7;}
	.st9{display:none;}
	.st10{display:inline;}
	
		.st11{opacity:0.7;fill:none;stroke:#FFFFFF;stroke-width:2;stroke-linecap:round;stroke-linejoin:round;stroke-miterlimit:10;stroke-dasharray:0,10;enable-background:new    ;}
	
		.st12{fill:none;stroke:#FFFFFF;stroke-width:2;stroke-linecap:round;stroke-linejoin:round;stroke-miterlimit:10;stroke-dasharray:0,10;}
	
		.st13{opacity:0.5;fill:none;stroke:#FFFFFF;stroke-width:2;stroke-linecap:round;stroke-linejoin:round;stroke-miterlimit:10;stroke-dasharray:0,10;enable-background:new    ;}
	
		.st14{opacity:0.3;fill:none;stroke:#FFFFFF;stroke-width:2;stroke-linecap:round;stroke-linejoin:round;stroke-miterlimit:10;stroke-dasharray:0,10;enable-background:new    ;}
	.st15{display:inline;opacity:0.5;}
	.st16{fill:#EBEBED;}
</style>
<g id="Layer_4">
	<rect y="0" class="st0" width="1500" height="1000"/>
	
		<linearGradient id="SVGID_1_" gradientUnits="userSpaceOnUse" x1="574.7595" y1="1153.2864" x2="925.2405" y2="-154.7263" gradientTransform="matrix(1 0 0 -1 0 999.28)">
		<stop  offset="0.1342" style="stop-color:#174D73"/>
		<stop  offset="0.5262" style="stop-color:#003355"/>
		<stop  offset="0.8691" style="stop-color:#002244"/>
	</linearGradient>
	<rect y="0" class="st1" width="1500" height="1000"/>
</g>
<g id="Layer_1_1_">
	<g class="st2">
		<circle class="st3" cx="872" cy="434.3" r="218.1"/>
		<circle class="st4" cx="872" cy="434.3" r="145.4"/>
		<circle class="st5" cx="872" cy="434.3" r="327.2"/>
		
			<ellipse transform="matrix(0.9999 -1.354259e-02 1.354259e-02 0.9999 -5.8021 11.8492)" class="st6" cx="872" cy="434.3" rx="490.7" ry="490.7"/>
	</g>
	<g class="st7">
		<circle class="st4" cx="1326.3" cy="377.1" r="99.6"/>
		<circle class="st3" cx="1326.3" cy="377.1" r="149.4"/>
		<circle class="st6" cx="1326.3" cy="377.1" r="224"/>
	</g>
	<g class="st8">
		<circle class="st4" cx="544.5" cy="334.8" r="99.6"/>
		<circle class="st3" cx="544.5" cy="334.8" r="149.4"/>
		<circle class="st6" cx="544.5" cy="334.8" r="224"/>
	</g>
	<g class="st7">
		<circle class="st4" cx="1314.2" cy="726.9" r="99.6"/>
		<circle class="st3" cx="1314.2" cy="726.9" r="149.4"/>
		<circle class="st6" cx="1314.2" cy="726.9" r="224"/>
	</g>
	<g>
		<circle class="st4" cx="1040" cy="670.9" r="74.6"/>
		<circle class="st3" cx="1040" cy="670.9" r="112"/>
		<circle class="st6" cx="1040" cy="670.9" r="168"/>
	</g>
	<g class="st8">
		<circle class="st4" cx="667.6" cy="679.8" r="74.6"/>
		<circle class="st3" cx="667.6" cy="679.8" r="112"/>
		<circle class="st6" cx="667.6" cy="679.8" r="168"/>
	</g>
	<g class="st7">
		<circle class="st4" cx="190" cy="138.4" r="74.6"/>
		<circle class="st3" cx="190" cy="138.4" r="112"/>
		<circle class="st6" cx="190" cy="138.4" r="168"/>
	</g>
</g>
<g id="Layer_5" class="st9">
	<g class="st10">
		<circle class="st11" cx="918.4" cy="334.7" r="192"/>
		<circle class="st12" cx="918.4" cy="334.7" r="128"/>
		<circle class="st13" cx="918.4" cy="334.7" r="288"/>
		
			<ellipse transform="matrix(0.9999 -1.354259e-02 1.354259e-02 0.9999 -4.4484 12.4681)" class="st14" cx="918.4" cy="334.7" rx="431.9" ry="431.9"/>
	</g>
	<g class="st10">
		<circle class="st12" cx="1318.3" cy="284.3" r="87.7"/>
		<circle class="st11" cx="1318.3" cy="284.3" r="131.5"/>
		<circle class="st14" cx="1318.3" cy="284.3" r="197.2"/>
	</g>
	<g class="st10">
		<circle class="st12" cx="630.1" cy="247" r="87.7"/>
		<circle class="st11" cx="630.1" cy="247" r="131.5"/>
		<circle class="st14" cx="630.1" cy="247" r="197.2"/>
	</g>
	<g class="st10">
		<circle class="st12" cx="1307.6" cy="592.2" r="87.7"/>
		<circle class="st11" cx="1307.6" cy="592.2" r="131.5"/>
		<circle class="st14" cx="1307.6" cy="592.2" r="197.2"/>
	</g>
	<g class="st10">
		<circle class="st12" cx="1066.3" cy="542.9" r="65.7"/>
		<circle class="st11" cx="1066.3" cy="542.9" r="98.6"/>
		<circle class="st14" cx="1066.3" cy="542.9" r="147.9"/>
	</g>
	<g class="st10">
		<circle class="st12" cx="738.5" cy="550.8" r="65.7"/>
		<circle class="st11" cx="738.5" cy="550.8" r="98.6"/>
		<circle class="st14" cx="738.5" cy="550.8" r="147.9"/>
	</g>
	<g class="st10">
		<circle class="st12" cx="318.1" cy="74.1" r="65.7"/>
		<circle class="st11" cx="318.1" cy="74.1" r="98.6"/>
		<circle class="st14" cx="318.1" cy="74.1" r="147.9"/>
	</g>
</g>
<g id="Layer_3" class="st9">
	<g class="st15">
		<path class="st16" d="M730.7,266.4c0,2.4-2.2,3.6-4.7,3.6c-3,0-5.1-1.8-5.1-4c0-0.1,0-0.3,0-0.4l1.7-1.7c-0.9-0.5-1.5-1.2-1.5-2.4
			c0-0.7,0.2-1.4,0.9-1.9c-0.6-0.7-1-1.6-1-2.7c0-2.5,1.9-4.1,4.4-4.1c1.2,0,2.3,0.4,3,1.1l1.8-1.6l1,1.2l-1.9,1.5
			c0.3,0.6,0.4,1.2,0.4,1.9c0,2.5-1.9,4-4.3,4c-0.8,0-1.6-0.2-2.2-0.5c-0.3,0.2-0.5,0.5-0.5,0.9c0,1.2,1.5,1.6,3.1,1.8
			C728.3,263.4,730.7,263.7,730.7,266.4z M729.2,266.5c0-1.5-1.8-1.6-3.8-1.9c-0.5-0.1-0.9-0.2-1.4-0.3l-1.4,1.7
			c0,1.2,1.3,2.4,3.6,2.4C727.7,268.4,729.2,267.8,729.2,266.5z M722.9,256.8c0,1.6,1,2.6,2.6,2.6s2.6-1.1,2.6-2.6s-1-2.7-2.6-2.7
			S722.9,255.3,722.9,256.8z"/>
		<path class="st16" d="M733.7,252.9h1.7v2.1c0.6-1.4,2-2.3,3.5-2.3c0.8,0,1.5,0.3,1.9,0.6l-0.7,1.5c-0.4-0.3-0.9-0.4-1.4-0.4
			c-2,0-3.2,1.6-3.2,4.4v5.8h-1.7L733.7,252.9L733.7,252.9z"/>
		<path class="st16" d="M742,261.3c0-2.3,1.8-3.4,5.2-3.4h2.7c0-2.2-0.8-3.7-2.9-3.7c-1.7,0-2.7,1-3.2,1.8l-1.3-1
			c1.1-1.5,2.5-2.3,4.4-2.3c3,0,4.6,1.9,4.6,4.8v7.2H750v-2.3c-0.9,1.8-2.4,2.5-4.1,2.5C743.5,264.8,742,263.5,742,261.3z
			 M749.8,259.2h-2.5c-2.3,0-3.5,0.6-3.5,2.2c0,1.4,1,2,2.2,2C748.4,263.3,749.8,261.1,749.8,259.2z"/>
		<path class="st16" d="M755.1,252.9h1.8v1.6c0.8-1.1,2-1.8,3.6-1.8c3.1,0,4.8,2.7,4.8,6.1c0,3.3-1.6,6.1-4.8,6.1
			c-1.5,0-2.8-0.7-3.6-1.8v6.7h-1.8V252.9z M763.4,258.7c0-2.4-1-4.6-3.4-4.6s-3.4,2.2-3.4,4.6s1,4.6,3.4,4.6
			C762.4,263.3,763.4,261.1,763.4,258.7z"/>
		<path class="st16" d="M768.3,248h1.7v6.8c0.8-1.3,2.3-2.1,3.8-2.1c2.8,0,3.9,2.2,3.9,4.7v7.2H776v-6.9c0-1.6-0.5-3.3-2.5-3.3
			c-2.1,0-3.5,1.8-3.5,4v6.3h-1.7V248z"/>
		<path class="st16" d="M781.3,248h2v2.2h-2V248z M781.5,252.9h1.7v11.7h-1.7V252.9z"/>
		<path class="st16" d="M786.3,258.7c0-3.1,1.7-6.1,5.1-6.1c2.1,0,3.7,1.2,4.6,3.1l-1.7,0.7c-0.4-1.4-1.5-2.3-2.9-2.3
			c-2.4,0-3.3,2.5-3.3,4.6c0,2.1,0.8,4.6,3.3,4.6c1.4,0,2.6-0.9,2.9-2.3l1.5,0.7c-0.7,1.9-2.3,3.1-4.4,3.1
			C788,264.8,786.3,261.9,786.3,258.7z"/>
		<path class="st16" d="M814.2,248v16.6h-1.7V263c-0.8,1.1-1.9,1.9-3.7,1.9c-3,0-4.7-2.8-4.7-6.1c0-3.4,1.7-6.1,4.7-6.1
			c1.7,0,2.9,0.7,3.7,1.8V248H814.2z M812.6,258.7c0-2.4-1-4.6-3.4-4.6c-2.3,0-3.4,2.2-3.4,4.6s1,4.6,3.4,4.6
			C811.6,263.3,812.6,261.1,812.6,258.7z"/>
		<path class="st16" d="M817.2,258.8c0-3.1,1.7-6.1,5.1-6.1c3.8,0,5,3,5,5.7c0,0.3,0,0.7-0.1,0.9H819c0,2.1,1.1,3.9,3.4,3.9
			c1.3,0,2.4-0.3,3.3-1.3l1.2,1c-1.3,1.3-2.6,1.8-4.5,1.8C818.9,264.7,817.2,262,817.2,258.8z M825.6,257.9c0-1.9-0.9-3.7-3.3-3.7
			c-2.1,0-3.2,1.7-3.2,3.7H825.6z"/>
		<path class="st16" d="M829.2,261.9l1.5-0.8c0.4,1.2,1.3,2.2,2.9,2.2c1.3,0,2.3-0.7,2.3-1.9c0-3.2-6.2-1.6-6.2-5.6
			c0-2.1,1.7-3.2,3.7-3.2c1.8,0,3.1,0.9,3.8,2.3l-1.3,0.7c-0.5-1-1.4-1.7-2.6-1.7c-1.3,0-2.1,0.7-2.1,1.6c0,2.7,6.3,1.3,6.3,5.6
			c0,2.4-2,3.6-4,3.6C831.3,264.8,829.7,263.5,829.2,261.9z"/>
		<path class="st16" d="M840.4,248h2v2.2h-2V248z M840.5,252.9h1.7v11.7h-1.7V252.9z"/>
		<path class="st16" d="M855.2,266.4c0,2.4-2.2,3.6-4.7,3.6c-3,0-5.1-1.8-5.1-4c0-0.1,0-0.3,0-0.4l1.7-1.7c-0.9-0.5-1.5-1.2-1.5-2.4
			c0-0.7,0.2-1.4,0.9-1.9c-0.6-0.7-1-1.6-1-2.7c0-2.5,1.9-4.1,4.4-4.1c1.2,0,2.3,0.4,3,1.1l1.8-1.6l1,1.2l-1.9,1.5
			c0.3,0.6,0.4,1.2,0.4,1.9c0,2.5-1.9,4-4.3,4c-0.8,0-1.6-0.2-2.2-0.5c-0.3,0.2-0.5,0.5-0.5,0.9c0,1.2,1.5,1.6,3.1,1.8
			C852.8,263.4,855.2,263.7,855.2,266.4z M853.7,266.5c0-1.5-1.8-1.6-3.8-1.9c-0.5-0.1-0.9-0.2-1.4-0.3l-1.4,1.7
			c0,1.2,1.3,2.4,3.6,2.4C852.2,268.4,853.7,267.8,853.7,266.5z M847.4,256.8c0,1.6,1,2.6,2.6,2.6s2.6-1.1,2.6-2.6s-1-2.7-2.6-2.7
			S847.4,255.3,847.4,256.8z"/>
		<path class="st16" d="M858.2,252.9h1.7v2c0.8-1.4,2.1-2.2,3.8-2.2c2.8,0,3.9,2.2,3.9,4.8v7.1h-1.7v-6.9c0-1.6-0.6-3.5-2.7-3.5
			c-1.8,0-3.3,1.4-3.3,4.3v6.1h-1.7V252.9z"/>
	</g>
	<g class="st15">
		<path class="st16" d="M1230.4,261.4h1.9l2.4,9.4l2.7-9.4h1.6l2.7,9.4l2.4-9.4h1.9l-3.3,11.7h-1.7l-2.7-9.5l-2.8,9.5h-1.7
			L1230.4,261.4z"/>
		<path class="st16" d="M1247.3,267.3c0-3.1,1.7-6.1,5.1-6.1c3.8,0,5,3,5,5.7c0,0.3,0,0.7-0.1,0.9h-8.2c0,2.1,1.1,3.9,3.4,3.9
			c1.3,0,2.4-0.3,3.3-1.3l1.2,1c-1.3,1.3-2.6,1.8-4.5,1.8C1249,273.2,1247.3,270.5,1247.3,267.3z M1255.7,266.4
			c0-1.9-0.9-3.7-3.3-3.7c-2.1,0-3.2,1.7-3.2,3.7H1255.7z"/>
		<path class="st16" d="M1262.1,271.5v1.6h-1.7v-16.6h1.7v6.4c0.8-1.1,1.9-1.8,3.6-1.8c3.1,0,4.7,2.8,4.7,6.1s-1.7,6.1-4.7,6.1
			C1264.1,273.3,1262.9,272.6,1262.1,271.5z M1268.7,267.2c0-2.4-1.1-4.6-3.4-4.6s-3.3,2.2-3.3,4.6s1,4.6,3.3,4.6
			C1267.7,271.8,1268.7,269.6,1268.7,267.2z"/>
		<path class="st16" d="M1289.2,256.5v16.6h-1.7v-1.6c-0.8,1.1-1.9,1.9-3.7,1.9c-3,0-4.7-2.8-4.7-6.1c0-3.4,1.7-6.1,4.7-6.1
			c1.7,0,2.9,0.7,3.7,1.8v-6.4L1289.2,256.5L1289.2,256.5z M1287.6,267.2c0-2.4-1-4.6-3.4-4.6c-2.3,0-3.4,2.2-3.4,4.6s1,4.6,3.4,4.6
			C1286.6,271.8,1287.6,269.6,1287.6,267.2z"/>
		<path class="st16" d="M1292.2,267.3c0-3.1,1.7-6.1,5.1-6.1c3.8,0,5,3,5,5.7c0,0.3,0,0.7-0.1,0.9h-8.2c0,2.1,1.1,3.9,3.4,3.9
			c1.3,0,2.4-0.3,3.3-1.3l1.2,1c-1.3,1.3-2.6,1.8-4.5,1.8C1293.9,273.2,1292.2,270.5,1292.2,267.3z M1300.6,266.4
			c0-1.9-0.9-3.7-3.3-3.7c-2.1,0-3.2,1.7-3.2,3.7H1300.6z"/>
		<path class="st16" d="M1304.2,270.4l1.5-0.8c0.4,1.2,1.3,2.2,2.9,2.2c1.3,0,2.3-0.7,2.3-1.9c0-3.2-6.2-1.6-6.2-5.6
			c0-2.1,1.7-3.2,3.7-3.2c1.8,0,3.1,0.9,3.8,2.3l-1.3,0.7c-0.5-1-1.4-1.7-2.6-1.7c-1.3,0-2.1,0.7-2.1,1.6c0,2.7,6.3,1.3,6.3,5.6
			c0,2.4-2,3.6-4,3.6C1306.3,273.3,1304.7,272,1304.2,270.4z"/>
		<path class="st16" d="M1315.4,256.5h2v2.2h-2V256.5z M1315.5,261.4h1.7v11.7h-1.7V261.4z"/>
		<path class="st16" d="M1330.2,274.9c0,2.4-2.2,3.6-4.7,3.6c-3,0-5.1-1.8-5.1-4c0-0.1,0-0.3,0-0.4l1.7-1.7
			c-0.9-0.5-1.5-1.2-1.5-2.4c0-0.7,0.2-1.4,0.9-1.9c-0.6-0.7-1-1.6-1-2.7c0-2.5,1.9-4.1,4.4-4.1c1.2,0,2.3,0.4,3,1.1l1.8-1.6l1,1.2
			l-1.9,1.5c0.3,0.6,0.4,1.2,0.4,1.9c0,2.5-1.9,4-4.3,4c-0.8,0-1.6-0.2-2.2-0.5c-0.3,0.2-0.5,0.5-0.5,0.9c0,1.2,1.5,1.6,3.1,1.8
			C1327.8,271.9,1330.2,272.2,1330.2,274.9z M1328.7,275c0-1.5-1.8-1.6-3.8-1.9c-0.5-0.1-0.9-0.2-1.4-0.3l-1.4,1.7
			c0,1.2,1.3,2.4,3.6,2.4C1327.2,276.9,1328.7,276.3,1328.7,275z M1322.4,265.3c0,1.6,1,2.6,2.6,2.6s2.6-1.1,2.6-2.6s-1-2.7-2.6-2.7
			S1322.4,263.8,1322.4,265.3z"/>
		<path class="st16" d="M1333.2,261.4h1.7v2c0.8-1.4,2.1-2.2,3.8-2.2c2.8,0,3.9,2.2,3.9,4.8v7.1h-1.7v-6.9c0-1.6-0.6-3.5-2.7-3.5
			c-1.8,0-3.3,1.4-3.3,4.3v6.1h-1.7L1333.2,261.4L1333.2,261.4z"/>
	</g>
	<g class="st15">
		<path class="st16" d="M1277.2,522.8h-2.1v-1.4h2.1v-2c0-2.1,1.4-3.1,3.2-3.1c0.7,0,1.4,0.2,1.9,0.4l-0.4,1.4
			c-0.5-0.2-0.9-0.4-1.4-0.4c-0.9,0-1.6,0.6-1.6,1.7v1.9h3.4v1.4h-3.4V533h-1.7V522.8z"/>
		<path class="st16" d="M1284.6,521.4h1.7v2.1c0.6-1.4,2-2.3,3.5-2.3c0.8,0,1.5,0.3,1.9,0.6l-0.7,1.5c-0.4-0.3-0.9-0.4-1.4-0.4
			c-2,0-3.2,1.6-3.2,4.4v5.8h-1.7v-11.7H1284.6z"/>
		<path class="st16" d="M1292,527.2c0-3.3,2.2-6.1,5.5-6.1s5.6,2.7,5.6,6.1c0,3.3-2.3,6.1-5.6,6.1
			C1294.2,533.3,1292,530.5,1292,527.2z M1301.3,527.2c0-2.3-1.2-4.6-3.8-4.6s-3.8,2.3-3.8,4.6c0,2.4,1.2,4.7,3.8,4.7
			C1300.1,531.8,1301.3,529.5,1301.3,527.2z"/>
		<path class="st16" d="M1306,521.4h1.7v2c0.8-1.4,2.1-2.2,3.8-2.2c2.8,0,3.9,2.2,3.9,4.8v7.1h-1.7v-6.9c0-1.6-0.6-3.5-2.7-3.5
			c-1.8,0-3.3,1.4-3.3,4.3v6.1h-1.7L1306,521.4L1306,521.4z"/>
		<path class="st16" d="M1319.6,530v-7.2h-1.9v-1.4h1.9v-2.6l1.7-1.6v4.3h3v1.4h-3v7.2c0,1.3,0.6,1.9,1.5,1.9c0.4,0,0.8-0.1,1.2-0.3
			v1.5c-0.3,0.1-0.9,0.2-1.6,0.2C1320.3,533.3,1319.6,532,1319.6,530z"/>
		<path class="st16" d="M1326.9,525h6v1.3h-6V525z"/>
		<path class="st16" d="M1335.9,527.3c0-3.1,1.7-6.1,5.1-6.1c3.8,0,5,3,5,5.7c0,0.3,0,0.7-0.1,0.9h-8.2c0,2.1,1.1,3.9,3.4,3.9
			c1.3,0,2.4-0.3,3.3-1.3l1.2,1c-1.3,1.3-2.6,1.8-4.5,1.8C1337.6,533.2,1335.9,530.5,1335.9,527.3z M1344.3,526.4
			c0-1.9-0.9-3.7-3.3-3.7c-2.1,0-3.2,1.7-3.2,3.7H1344.3z"/>
		<path class="st16" d="M1349,521.4h1.7v2c0.8-1.4,2.1-2.2,3.8-2.2c2.8,0,3.9,2.2,3.9,4.8v7.1h-1.7v-6.9c0-1.6-0.6-3.5-2.7-3.5
			c-1.8,0-3.3,1.4-3.3,4.3v6.1h-1.7L1349,521.4L1349,521.4z"/>
		<path class="st16" d="M1371.3,516.5v16.6h-1.7v-1.6c-0.8,1.1-1.9,1.9-3.7,1.9c-3,0-4.7-2.8-4.7-6.1c0-3.4,1.7-6.1,4.7-6.1
			c1.7,0,2.9,0.7,3.7,1.8v-6.4h1.7V516.5z M1369.7,527.2c0-2.4-1-4.6-3.4-4.6c-2.3,0-3.4,2.2-3.4,4.6c0,2.4,1,4.6,3.4,4.6
			C1368.8,531.8,1369.7,529.6,1369.7,527.2z"/>
	</g>
	<g class="st15">
		<path class="st16" d="M1036.2,482.5v-5.7h1.5v5.8c0,1.4,0.4,3,2.1,3c1.6,0,2.9-1.4,2.9-3.3v-5.4h1.4v9.8h-1.4V485
			c-0.4,0.8-1.5,1.9-3.1,1.9C1037.1,486.8,1036.2,484.9,1036.2,482.5z"/>
		<path class="st16" d="M1049.4,481.6l-3.3-4.8h1.8l2.3,3.6l2.3-3.6h1.7l-3.3,4.8l3.3,4.9h-1.7l-2.3-3.7l-2.3,3.7h-1.8L1049.4,481.6
			z"/>
		<path class="st16" d="M1069.3,472.8v13.8h-1.4v-1.4c-0.6,0.9-1.6,1.6-3.1,1.6c-2.5,0-3.9-2.3-3.9-5.1c0-2.8,1.4-5.1,3.9-5.1
			c1.4,0,2.4,0.6,3.1,1.5v-5.4h1.4V472.8z M1067.9,481.7c0-2-0.8-3.8-2.8-3.8s-2.8,1.9-2.8,3.8c0,2,0.8,3.8,2.8,3.8
			S1067.9,483.7,1067.9,481.7z"/>
		<path class="st16" d="M1071.8,481.7c0-2.6,1.4-5.1,4.2-5.1c3.2,0,4.1,2.5,4.1,4.8c0,0.3,0,0.6,0,0.8h-6.8c0,1.7,0.9,3.2,2.9,3.2
			c1.1,0,2-0.2,2.7-1l1,0.8c-1.1,1.1-2.2,1.5-3.7,1.5C1073.3,486.7,1071.8,484.4,1071.8,481.7z M1078.8,481c0-1.6-0.7-3.1-2.7-3.1
			c-1.8,0-2.6,1.5-2.7,3.1H1078.8z"/>
		<path class="st16" d="M1081.8,484.4l1.2-0.6c0.3,1,1.1,1.9,2.4,1.9c1.1,0,1.9-0.6,1.9-1.6c0-2.6-5.2-1.3-5.2-4.6
			c0-1.8,1.4-2.7,3.1-2.7c1.5,0,2.6,0.8,3.2,1.9l-1.1,0.6c-0.4-0.8-1.1-1.4-2.2-1.4s-1.7,0.5-1.7,1.3c0,2.2,5.3,1.1,5.3,4.6
			c0,2-1.7,3-3.3,3C1083.6,486.8,1082.2,485.6,1081.8,484.4z"/>
		<path class="st16" d="M1091.1,472.8h1.7v1.9h-1.7V472.8z M1091.2,476.8h1.4v9.8h-1.4V476.8z"/>
		<path class="st16" d="M1103.5,488.1c0,2-1.9,3-3.9,3c-2.5,0-4.2-1.5-4.2-3.3c0-0.1,0-0.2,0-0.4l1.4-1.4c-0.7-0.4-1.2-1-1.2-2
			c0-0.6,0.2-1.1,0.7-1.6c-0.5-0.6-0.8-1.3-0.8-2.2c0-2.1,1.6-3.4,3.7-3.4c1,0,1.9,0.3,2.5,0.9l1.5-1.3l0.8,1l-1.6,1.2
			c0.2,0.5,0.4,1,0.4,1.6c0,2.1-1.6,3.4-3.6,3.4c-0.7,0-1.3-0.1-1.8-0.4c-0.3,0.2-0.4,0.4-0.4,0.8c0,1,1.2,1.3,2.6,1.5
			C1101.5,485.6,1103.5,485.9,1103.5,488.1z M1102.2,488.2c0-1.2-1.5-1.3-3.2-1.6c-0.4-0.1-0.8-0.1-1.2-0.3l-1.2,1.4c0,1,1.1,2,3,2
			C1101,489.8,1102.2,489.2,1102.2,488.2z M1097,480.1c0,1.3,0.8,2.2,2.1,2.2s2.2-0.9,2.2-2.2c0-1.2-0.8-2.2-2.2-2.2
			S1097,478.9,1097,480.1z"/>
		<path class="st16" d="M1106,476.8h1.5v1.7c0.6-1.1,1.7-1.9,3.1-1.9c2.3,0,3.3,1.9,3.3,4v5.9h-1.4v-5.8c0-1.3-0.5-2.9-2.2-2.9
			c-1.5,0-2.8,1.2-2.8,3.6v5.1h-1.5V476.8z"/>
	</g>
	<g class="st15">
		<path class="st16" d="M750.8,544.8h1.7v1.9h-1.7V544.8z M751,548.8h1.4v9.8H751V548.8z"/>
		<path class="st16" d="M755.7,548.8h1.5v1.7c0.6-1.1,1.7-1.9,3.1-1.9c2.3,0,3.3,1.9,3.3,4v5.9h-1.4v-5.8c0-1.3-0.5-2.9-2.2-2.9
			c-1.5,0-2.8,1.2-2.8,3.6v5.1h-1.5L755.7,548.8L755.7,548.8z"/>
		<path class="st16" d="M767,556v-6h-1.6v-1.2h1.6v-2.2l1.4-1.4v3.6h2.5v1.2h-2.5v6c0,1.1,0.5,1.6,1.2,1.6c0.3,0,0.7-0.1,1-0.2v1.2
			c-0.2,0.1-0.7,0.2-1.3,0.2C767.6,558.8,767,557.6,767,556z"/>
		<path class="st16" d="M772.4,553.7c0-2.6,1.4-5.1,4.2-5.1c3.2,0,4.1,2.5,4.1,4.8c0,0.3,0,0.6,0,0.8h-6.8c0,1.7,0.9,3.2,2.9,3.2
			c1.1,0,2-0.2,2.7-1l1,0.8c-1.1,1.1-2.2,1.5-3.7,1.5C773.8,558.7,772.4,556.4,772.4,553.7z M779.4,553c0-1.6-0.7-3.1-2.7-3.1
			c-1.8,0-2.6,1.5-2.7,3.1H779.4z"/>
		<path class="st16" d="M783.3,548.8h1.5v1.7c0.5-1.2,1.7-1.9,2.9-1.9c0.7,0,1.2,0.2,1.6,0.5l-0.6,1.3c-0.3-0.3-0.7-0.4-1.2-0.4
			c-1.7,0-2.7,1.3-2.7,3.7v4.9h-1.4L783.3,548.8L783.3,548.8z"/>
		<path class="st16" d="M790.2,555.8c0-2,1.5-2.9,4.3-2.9h2.2c0-1.8-0.6-3.1-2.4-3.1c-1.4,0-2.2,0.8-2.7,1.5l-1.1-0.8
			c0.9-1.2,2.1-1.9,3.7-1.9c2.5,0,3.8,1.6,3.8,4v6h-1.2v-1.9c-0.7,1.5-2,2.1-3.4,2.1C791.5,558.8,790.2,557.7,790.2,555.8z
			 M796.7,554.1h-2.1c-1.9,0-2.9,0.5-2.9,1.8c0,1.2,0.8,1.6,1.8,1.6C795.5,557.5,796.7,555.7,796.7,554.1z"/>
		<path class="st16" d="M800.3,553.7c0-2.6,1.4-5.1,4.2-5.1c1.8,0,3.1,1,3.8,2.6l-1.4,0.6c-0.3-1.2-1.2-2-2.4-2
			c-2,0-2.7,2.1-2.7,3.9c0,1.8,0.7,3.8,2.7,3.8c1.2,0,2.1-0.8,2.4-1.9l1.3,0.5c-0.6,1.6-1.9,2.6-3.7,2.6
			C801.7,558.8,800.3,556.3,800.3,553.7z"/>
		<path class="st16" d="M810.9,556v-6h-1.6v-1.2h1.6v-2.2l1.4-1.4v3.6h2.5v1.2h-2.5v6c0,1.1,0.5,1.6,1.2,1.6c0.3,0,0.7-0.1,1-0.2
			v1.2c-0.2,0.1-0.7,0.2-1.3,0.2C811.5,558.8,810.9,557.6,810.9,556z"/>
		<path class="st16" d="M817.1,544.8h1.7v1.9h-1.7V544.8z M817.2,548.8h1.4v9.8h-1.4V548.8z"/>
		<path class="st16" d="M821.1,553.7c0-2.8,1.8-5.1,4.6-5.1c2.7,0,4.6,2.3,4.6,5.1s-1.9,5.1-4.6,5.1S821.1,556.4,821.1,553.7z
			 M828.9,553.7c0-2-1-3.8-3.1-3.8s-3.2,1.9-3.2,3.8c0,2,1,3.9,3.1,3.9C827.9,557.5,828.9,555.6,828.9,553.7z"/>
		<path class="st16" d="M832.8,548.8h1.5v1.7c0.6-1.1,1.7-1.9,3.1-1.9c2.3,0,3.3,1.9,3.3,4v5.9h-1.4v-5.8c0-1.3-0.5-2.9-2.2-2.9
			c-1.5,0-2.8,1.2-2.8,3.6v5.1h-1.5L832.8,548.8L832.8,548.8z"/>
		<path class="st16" d="M856.8,544.8v13.8h-1.4v-1.4c-0.6,0.9-1.6,1.6-3.1,1.6c-2.5,0-3.9-2.3-3.9-5.1s1.4-5.1,3.9-5.1
			c1.4,0,2.4,0.6,3.1,1.5v-5.4h1.4V544.8z M855.4,553.7c0-2-0.8-3.8-2.8-3.8s-2.8,1.9-2.8,3.8c0,2,0.8,3.8,2.8,3.8
			C854.6,557.5,855.4,555.7,855.4,553.7z"/>
		<path class="st16" d="M859.3,553.7c0-2.6,1.4-5.1,4.2-5.1c3.2,0,4.1,2.5,4.1,4.8c0,0.3,0,0.6,0,0.8h-6.8c0,1.7,0.9,3.2,2.9,3.2
			c1.1,0,2-0.2,2.7-1l1,0.8c-1.1,1.1-2.2,1.5-3.7,1.5C860.8,558.7,859.3,556.4,859.3,553.7z M866.3,553c0-1.6-0.7-3.1-2.7-3.1
			c-1.8,0-2.6,1.5-2.7,3.1H866.3z"/>
		<path class="st16" d="M869.3,556.3l1.2-0.6c0.3,1,1.1,1.9,2.4,1.9c1.1,0,1.9-0.6,1.9-1.6c0-2.6-5.2-1.3-5.2-4.6
			c0-1.8,1.4-2.7,3.1-2.7c1.5,0,2.6,0.8,3.2,1.9l-1.1,0.6c-0.4-0.8-1.1-1.4-2.2-1.4c-1.1,0-1.7,0.5-1.7,1.3c0,2.2,5.3,1.1,5.3,4.6
			c0,2-1.7,3-3.3,3C871.1,558.8,869.7,557.6,869.3,556.3z"/>
		<path class="st16" d="M878.6,544.8h1.7v1.9h-1.7V544.8z M878.7,548.8h1.4v9.8h-1.4V548.8z"/>
		<path class="st16" d="M891,560.1c0,2-1.9,3-3.9,3c-2.5,0-4.2-1.5-4.2-3.3c0-0.1,0-0.2,0-0.4l1.4-1.4c-0.7-0.4-1.2-1-1.2-2
			c0-0.6,0.2-1.1,0.7-1.6c-0.5-0.6-0.8-1.3-0.8-2.2c0-2.1,1.6-3.4,3.7-3.4c1,0,1.9,0.3,2.5,0.9l1.5-1.3l0.8,1l-1.6,1.2
			c0.2,0.5,0.4,1,0.4,1.6c0,2.1-1.6,3.4-3.6,3.4c-0.7,0-1.3-0.1-1.8-0.4c-0.3,0.2-0.4,0.4-0.4,0.8c0,1,1.2,1.3,2.6,1.5
			C889,557.6,891,557.9,891,560.1z M889.7,560.2c0-1.2-1.5-1.3-3.2-1.6c-0.4-0.1-0.8-0.1-1.2-0.3l-1.2,1.4c0,1,1.1,2,3,2
			C888.5,561.7,889.7,561.2,889.7,560.2z M884.4,552.1c0,1.3,0.8,2.2,2.1,2.2s2.2-0.9,2.2-2.2c0-1.2-0.8-2.2-2.2-2.2
			S884.4,550.9,884.4,552.1z"/>
		<path class="st16" d="M893.5,548.8h1.5v1.7c0.6-1.1,1.7-1.9,3.1-1.9c2.3,0,3.3,1.9,3.3,4v5.9H900v-5.8c0-1.3-0.5-2.9-2.2-2.9
			c-1.5,0-2.8,1.2-2.8,3.6v5.1h-1.5L893.5,548.8L893.5,548.8z"/>
	</g>
	<g class="st15">
		<path class="st16" d="M577.7,134.4h1.9l3.2,9.4l3.3-9.4h1.9l-4.4,11.7H582L577.7,134.4z"/>
		<path class="st16" d="M590.2,129.5h2v2.2h-2V129.5z M590.3,134.4h1.7v11.7h-1.7V134.4z"/>
		<path class="st16" d="M594.9,143.4l1.5-0.8c0.4,1.2,1.3,2.2,2.9,2.2c1.3,0,2.3-0.7,2.3-1.9c0-3.2-6.2-1.6-6.2-5.6
			c0-2.1,1.7-3.2,3.7-3.2c1.8,0,3.1,0.9,3.8,2.3l-1.3,0.7c-0.5-1-1.4-1.7-2.6-1.7c-1.3,0-2.1,0.7-2.1,1.6c0,2.7,6.3,1.3,6.3,5.6
			c0,2.4-2,3.6-4,3.6C597.1,146.3,595.5,145,594.9,143.4z"/>
		<path class="st16" d="M605.8,141.2v-6.8h1.7v6.9c0,1.7,0.5,3.6,2.5,3.6c1.9,0,3.5-1.7,3.5-4v-6.5h1.7v11.7h-1.7v-2
			c-0.5,1-1.8,2.2-3.7,2.2C606.9,146.3,605.8,144.1,605.8,141.2z"/>
		<path class="st16" d="M618.1,142.8c0-2.3,1.8-3.4,5.2-3.4h2.7c0-2.2-0.8-3.7-2.9-3.7c-1.7,0-2.7,1-3.2,1.8l-1.3-1
			c1.1-1.5,2.5-2.3,4.4-2.3c3,0,4.6,1.9,4.6,4.8v7.2h-1.5v-2.3c-0.9,1.8-2.4,2.5-4.1,2.5C619.7,146.3,618.1,145,618.1,142.8z
			 M626,140.7h-2.5c-2.3,0-3.5,0.6-3.5,2.2c0,1.4,1,2,2.2,2C624.5,144.8,626,142.6,626,140.7z"/>
		<path class="st16" d="M634.6,144.7v1.4c-0.4,0.1-1,0.2-1.6,0.2c-1.8,0-1.9-1.2-1.9-2.6v-14.2h1.8v14.6c0,0,0,0.7,0.6,0.7
			C633.9,144.8,634.4,144.7,634.6,144.7z"/>
		<path class="st16" d="M637.2,129.5h2v2.2h-2V129.5z M637.3,134.4h1.7v11.7h-1.7V134.4z"/>
		<path class="st16" d="M641.9,143.4l1.5-0.8c0.4,1.2,1.3,2.2,2.9,2.2c1.3,0,2.3-0.7,2.3-1.9c0-3.2-6.2-1.6-6.2-5.6
			c0-2.1,1.7-3.2,3.7-3.2c1.8,0,3.1,0.9,3.8,2.3l-1.3,0.7c-0.5-1-1.4-1.7-2.6-1.7c-1.3,0-2.1,0.7-2.1,1.6c0,2.7,6.3,1.3,6.3,5.6
			c0,2.4-2,3.6-4,3.6C644,146.3,642.4,145,641.9,143.4z"/>
		<path class="st16" d="M651.9,142.8c0-2.3,1.8-3.4,5.2-3.4h2.7c0-2.2-0.8-3.7-2.9-3.7c-1.7,0-2.7,1-3.2,1.8l-1.3-1
			c1.1-1.5,2.5-2.3,4.4-2.3c3,0,4.6,1.9,4.6,4.8v7.2h-1.5v-2.3c-0.9,1.8-2.4,2.5-4.1,2.5C653.5,146.3,651.9,145,651.9,142.8z
			 M659.7,140.7h-2.5c-2.3,0-3.5,0.6-3.5,2.2c0,1.4,1,2,2.2,2C658.3,144.8,659.7,142.6,659.7,140.7z"/>
		<path class="st16" d="M665.4,143v-7.2h-1.9v-1.4h1.9v-2.6l1.7-1.6v4.3h3v1.4h-3v7.2c0,1.3,0.6,1.9,1.5,1.9c0.4,0,0.8-0.1,1.2-0.3
			v1.5c-0.3,0.1-0.9,0.2-1.6,0.2C666.1,146.3,665.4,145,665.4,143z"/>
		<path class="st16" d="M672.7,129.5h2v2.2h-2V129.5z M672.9,134.4h1.7v11.7h-1.7V134.4z"/>
		<path class="st16" d="M677.6,140.2c0-3.3,2.2-6.1,5.5-6.1s5.6,2.7,5.6,6.1c0,3.3-2.3,6.1-5.6,6.1S677.6,143.5,677.6,140.2z
			 M686.9,140.2c0-2.3-1.2-4.6-3.8-4.6s-3.8,2.3-3.8,4.6c0,2.4,1.2,4.7,3.8,4.7C685.8,144.9,686.9,142.5,686.9,140.2z"/>
		<path class="st16" d="M691.7,134.4h1.7v2c0.8-1.4,2.1-2.2,3.8-2.2c2.8,0,3.9,2.2,3.9,4.8v7.1h-1.7v-6.9c0-1.6-0.6-3.5-2.7-3.5
			c-1.8,0-3.3,1.4-3.3,4.3v6.1h-1.7V134.4z"/>
	</g>
	<g class="st15">
		<path class="st16" d="M836.3,359.6h-3.2v-2.1h3.2v-3c0-3.2,2.2-4.7,4.7-4.7c1.1,0,2.1,0.3,2.9,0.7l-0.6,2.1
			c-0.7-0.3-1.4-0.5-2.1-0.5c-1.4,0-2.3,0.8-2.3,2.6v2.8h5v2.1h-5V375h-2.6L836.3,359.6L836.3,359.6z"/>
		<path class="st16" d="M846.8,367.6v-10.2h2.6v10.4c0,2.5,0.7,5.4,3.7,5.4c2.8,0,5.2-2.6,5.2-6v-9.7h2.6V375h-2.6v-3
			c-0.7,1.5-2.7,3.4-5.5,3.4C848.5,375.4,846.8,372,846.8,367.6z"/>
		<path class="st16" d="M872.1,372.9v2.1c-0.6,0.2-1.5,0.4-2.4,0.4c-2.7,0-2.8-1.8-2.8-3.9v-21.3h2.7v21.9c0,0.1,0.1,1,0.9,1
			C871,373.1,871.7,373,872.1,372.9z"/>
		<path class="st16" d="M881.2,372.9v2.1c-0.6,0.2-1.5,0.4-2.4,0.4c-2.7,0-2.8-1.8-2.8-3.9v-21.3h2.7v21.9c0,0.1,0.1,1,0.9,1
			C880.1,373.1,880.8,373,881.2,372.9z"/>
		<path class="st16" d="M892.9,371l2.2-1.1c0.6,1.9,2,3.3,4.4,3.3c2,0,3.4-1,3.4-2.9c0-4.7-9.3-2.4-9.3-8.4c0-3.2,2.6-4.9,5.6-4.9
			c2.7,0,4.7,1.4,5.8,3.5l-1.9,1.1c-0.8-1.5-2-2.5-3.9-2.5s-3.1,1-3.1,2.4c0,4,9.5,1.9,9.5,8.4c0,3.6-3,5.4-6,5.4
			C896.2,375.4,893.7,373.3,892.9,371z"/>
		<path class="st16" d="M910.5,370.3v-10.8h-2.8v-2.1h2.8v-4l2.6-2.5v6.4h4.4v2.1h-4.4v10.8c0,1.9,0.9,2.8,2.2,2.8
			c0.6,0,1.2-0.2,1.8-0.4v2.2c-0.4,0.2-1.3,0.4-2.4,0.4C911.7,375.4,910.5,373.3,910.5,370.3z"/>
		<path class="st16" d="M920.1,370.1c0-3.5,2.7-5.2,7.7-5.2h4c0-3.3-1.1-5.6-4.3-5.6c-2.5,0-4,1.4-4.9,2.7l-1.9-1.5
			c1.6-2.2,3.7-3.4,6.6-3.4c4.5,0,6.9,2.9,6.9,7.2V375H932l-0.1-3.4c-1.3,2.6-3.7,3.7-6.2,3.7C922.5,375.4,920.1,373.4,920.1,370.1z
			 M931.9,366.9h-3.8c-3.5,0-5.3,0.9-5.3,3.2c0,2.1,1.5,3,3.3,3C929.7,373.1,931.9,369.8,931.9,366.9z"/>
		<path class="st16" d="M938.4,366.2c0-4.7,2.5-9.2,7.6-9.2c3.2,0,5.6,1.8,6.8,4.7l-2.5,1.1c-0.5-2.1-2.2-3.5-4.4-3.5
			c-3.6,0-4.9,3.8-4.9,7s1.2,6.9,4.9,6.9c2.1,0,3.8-1.4,4.4-3.4l2.3,1c-1,2.9-3.4,4.7-6.6,4.7C941,375.4,938.4,371,938.4,366.2z"/>
		<path class="st16" d="M956.9,350.2h2.7v16.7l7.8-9.5h3.3l-5.7,6.5l6.9,11.1h-3.1l-5.4-9.3l-3.8,4.2v5.2h-2.7V350.2z"/>
		<path class="st16" d="M998.7,350.2V375h-2.5l-0.1-2.4c-1.2,1.7-2.8,2.8-5.5,2.8c-4.5,0-7-4.1-7-9.1s2.5-9.1,7-9.1
			c2.6,0,4.3,1.1,5.5,2.8v-9.7L998.7,350.2L998.7,350.2z M996.3,366.2c0-3.6-1.4-6.9-5-6.9c-3.5,0-5,3.4-5,6.9c0,3.6,1.5,6.9,5,6.9
			C994.9,373.1,996.3,369.8,996.3,366.2z"/>
		<path class="st16" d="M1003.3,366.3c0-4.7,2.5-9.1,7.6-9.1c5.7,0,7.5,4.5,7.5,8.6c0,0.5-0.1,1-0.1,1.4h-12.2
			c0,3.1,1.7,5.8,5.1,5.8c2,0,3.6-0.4,4.9-1.9l1.8,1.4c-1.9,1.9-3.9,2.7-6.7,2.7C1005.9,375.2,1003.3,371.1,1003.3,366.3z
			 M1015.9,365c-0.1-2.8-1.3-5.6-4.9-5.6c-3.2,0-4.7,2.6-4.9,5.6H1015.9z"/>
		<path class="st16" d="M1021.2,371l2.2-1.1c0.6,1.9,2,3.3,4.4,3.3c2,0,3.4-1,3.4-2.9c0-4.7-9.3-2.4-9.3-8.4c0-3.2,2.6-4.9,5.6-4.9
			c2.7,0,4.7,1.4,5.8,3.5l-1.9,1.1c-0.8-1.5-2-2.5-3.9-2.5s-3.1,1-3.1,2.4c0,4,9.5,1.9,9.5,8.4c0,3.6-3,5.4-6,5.4
			C1024.5,375.4,1022,373.3,1021.2,371z"/>
		<path class="st16" d="M1038,350.2h3v3.4h-3V350.2z M1038.2,357.4h2.6V375h-2.6V357.4z"/>
		<path class="st16" d="M1060.3,377.7c0,3.6-3.3,5.3-7,5.3c-4.6,0-7.6-2.6-7.6-6c0-0.2,0-0.4,0.1-0.7l2.5-2.5
			c-1.3-0.7-2.2-1.8-2.2-3.6c0-1,0.3-2,1.3-2.9c-0.9-1-1.5-2.4-1.5-4c0-3.7,2.9-6.2,6.6-6.2c1.8,0,3.4,0.6,4.5,1.6l2.6-2.4l1.5,1.9
			l-2.8,2.2c0.4,0.8,0.7,1.8,0.7,2.8c0,3.8-2.8,6-6.5,6c-1.2,0-2.3-0.3-3.3-0.7c-0.5,0.4-0.8,0.8-0.8,1.4c0,1.8,2.2,2.3,4.7,2.7
			C1056.6,373.2,1060.3,373.7,1060.3,377.7z M1058,377.9c0-2.2-2.7-2.3-5.7-2.8c-0.7-0.1-1.4-0.2-2.1-0.5l-2.1,2.5
			c0,1.8,2,3.6,5.4,3.6C1055.8,380.7,1058,379.8,1058,377.9z M1048.5,363.3c0,2.4,1.5,4,3.9,4s3.9-1.6,3.9-4c0-2.2-1.5-4-3.9-4
			S1048.5,361.1,1048.5,363.3z"/>
		<path class="st16" d="M1064.7,357.4h2.6v3.1c1.2-2.1,3.1-3.4,5.7-3.4c4.2,0,5.9,3.3,5.9,7.2V375h-2.6v-10.4c0-2.4-0.9-5.2-4-5.2
			c-2.8,0-5,2.2-5,6.5v9.1h-2.6V357.4z"/>
	</g>
</g>
</svg>
