<?xml version="1.0" encoding="utf-8"?>
<!-- Generator: Adobe Illustrator 23.0.2, SVG Export Plug-In . SVG Version: 6.00 Build 0)  -->
<svg version="1.1" id="Ebene_2" xmlns="http://www.w3.org/2000/svg" xmlns:xlink="http://www.w3.org/1999/xlink" x="0px" y="0px"
	 viewBox="0 0 200 55.9" style="enable-background:new 0 0 200 55.9;" xml:space="preserve">
<style type="text/css">
	.st0{fill:#1B1B1B;}
	.st1{fill:#c1a078;}
</style>
<path class="st0" d="M12.2,31.2c0-3.5,0.8-6,2.4-7.6c1.6-1.6,4.1-2.4,7.5-2.4h4V8.8h-0.9h-0.9c-3.1,0-6.2,0.4-9.1,1.2
	c-2.9,0.8-5.5,2.1-7.7,3.8c-2.3,1.9-4.1,4.3-5.5,7.4c-1.3,3.1-2,6.9-2,11.4V55h12.2V31.2z"/>
<path class="st0" d="M42.9,20.3c1.6-1.6,3.7-2.4,6.3-2.4c2.8,0,4.9,0.8,6.4,2.4c1.4,1.5,2.2,3.8,2.4,7H40.3
	C40.4,24.2,41.3,21.9,42.9,20.3 M49,55.9c5.4,0,10-1.3,13.5-4c3.6-2.5,6-6.3,7.3-11.1l-11.8,0c-0.6,2.1-2.5,3.3-3.3,3.8
	c-0.2,0.1-1.8,1.2-5,1.2c-3,0-5.3-0.9-6.8-2.8c-1.6-1.7-2.5-4.4-2.6-8h30.2c0,0,0-1.7,0-1.7v-1.4c0-7.6-1.9-13.6-5.6-17.9
	c-3.8-4.2-9.2-6.3-16.2-6.3c-6.6,0-11.8,2.1-15.5,6.4c-3.6,4.2-5.4,10-5.4,17.4c0,7.8,1.9,13.7,5.6,17.9
	C37.3,53.8,42.4,55.9,49,55.9"/>
<path class="st0" d="M94,7.8c0,0-0.5,0,1.1,0c11.9,0,19,8.6,19,18.3v29L102,55V25.5c0-2.8-0.8-4.8-2.5-6.1c-1.7-1.3-3.6-1.9-5.6-1.9
	c-2.1,0-3.9,0.6-5.6,1.9c-1.6,1.3-2.4,3.3-2.4,6.1V55H73.6V26c0-9.7,7.2-18.3,19-18.3c1.6,0,1.1,0,1.1,0"/>
<path class="st0" d="M138.6,20v-7.9h-7.2V0.8c0-0.3,0-0.6-0.1-0.8h-12v46.3c0,5.4,2.2,8.2,6.7,8.6c4.5,0.4,8.7,0.4,12.5,0.2v-9.1
	h-3.7c-2.3,0-3.5-1-3.5-3V20H138.6z"/>
<path class="st1" d="M175.1,35l8.1-11l0,11H175.1z M200,0v34.9C200,46,191,55,179.9,55h-35.1V20.1c0-11.1,9-20.1,20.1-20.1H200z
	 M193.1,35H189l0-20.7l-5.8,0c-5.2,7-10.2,13.7-15.3,20.7h-7.1c0.2-0.9,1.1-1.9,2.7-2.9c1.6-1,3-1.9,4-2.6c3-2,5.1-3.9,6.2-5.6
	c1.1-1.5,1.6-3.4,1.6-5.8c0-3.1-1-5.6-3-7.6c-2-1.8-4.8-2.7-8.3-2.7c-3.8,0-6.7,1-8.8,3c-1.4,1.5-2.3,3.3-2.7,5.4
	c-0.2,0.8-0.3,3.1-0.3,3.5h6.2v-0.3c0-1.8,0.4-3.3,1.3-4.5c1-1.1,2.3-1.6,4-1.6c1.5,0,2.7,0.4,3.6,1.3c0.9,0.8,1.3,2,1.3,3.5
	c0,1.3-0.6,2.5-1.7,3.6c-1.1,1.1-2.7,2.4-4.8,3.7c-0.5,0.3-0.9,0.6-1.3,0.8c-0.4,0.2-0.7,0.4-0.8,0.5c-2.6,1.8-4.6,3.8-6,6
	c-1.5,2.3-2.2,5-2.2,8h31.5v6.5h5.8v-6.5h4.1V35z"/>
</svg>
