<svg width="33" height="32" viewBox="0 0 33 32" fill="none" xmlns="http://www.w3.org/2000/svg">
<path d="M22.833 6H22.833C23.7613 6 24.6515 6.36875 25.3079 7.02512C25.9643 7.6815 26.333 8.57174 26.333 9.49999V9.5C26.333 10.4283 25.9643 11.3185 25.3079 11.9749C24.6515 12.6313 23.7613 13 22.833 13H19.333V9.5C19.333 8.57174 19.7018 7.6815 20.3581 7.02513C21.0145 6.36875 21.9048 6 22.833 6V6Z" stroke="#6547FE" stroke-width="2" stroke-linecap="round" stroke-linejoin="round"/>
<path d="M13.333 13H9.83301C8.90475 13 8.01451 12.6313 7.35813 11.9749C6.70176 11.3185 6.33301 10.4283 6.33301 9.5V9.49999C6.33301 8.57174 6.70176 7.6815 7.35813 7.02512C8.01451 6.36875 8.90474 6 9.833 6H9.83301C10.7613 6 11.6515 6.36875 12.3079 7.02513C12.9643 7.6815 13.333 8.57174 13.333 9.5V13Z" stroke="#6547FE" stroke-width="2" stroke-linecap="round" stroke-linejoin="round"/>
<path d="M19.333 19H22.833C23.7613 19 24.6515 19.3687 25.3079 20.0251C25.9643 20.6815 26.333 21.5717 26.333 22.5V22.5C26.333 23.4283 25.9643 24.3185 25.3079 24.9749C24.6515 25.6313 23.7613 26 22.833 26H22.833C21.9048 26 21.0145 25.6313 20.3581 24.9749C19.7018 24.3185 19.333 23.4283 19.333 22.5V19Z" stroke="#6547FE" stroke-width="2" stroke-linecap="round" stroke-linejoin="round"/>
<path d="M9.83301 26H9.833C8.90474 26 8.01451 25.6313 7.35813 24.9749C6.70176 24.3185 6.33301 23.4283 6.33301 22.5V22.5C6.33301 21.5717 6.70176 20.6815 7.35813 20.0251C8.01451 19.3687 8.90475 19 9.83301 19H13.333V22.5C13.333 23.4283 12.9643 24.3185 12.3079 24.9749C11.6515 25.6313 10.7613 26 9.83301 26V26Z" stroke="#6547FE" stroke-width="2" stroke-linecap="round" stroke-linejoin="round"/>
<path d="M19.333 13H13.333V19H19.333V13Z" stroke="#6547FE" stroke-width="2" stroke-linecap="round" stroke-linejoin="round"/>
</svg>
