<svg width="33" height="32" viewBox="0 0 33 32" fill="none" xmlns="http://www.w3.org/2000/svg">
<path d="M11.667 20C15.2568 20 18.167 17.0899 18.167 13.5C18.167 9.91015 15.2568 7 11.667 7C8.07714 7 5.16699 9.91015 5.16699 13.5C5.16699 17.0899 8.07714 20 11.667 20Z" stroke="#6547FE" stroke-width="2" stroke-miterlimit="10"/>
<path d="M20.0938 7.24212C20.9878 6.99023 21.9254 6.93284 22.8435 7.07383C23.7615 7.21483 24.6387 7.55092 25.416 8.05947C26.1932 8.56802 26.8525 9.23723 27.3493 10.022C27.8461 10.8068 28.169 11.6889 28.2962 12.609C28.4234 13.5291 28.3519 14.4658 28.0867 15.3559C27.8214 16.2461 27.3684 17.069 26.7583 17.7694C26.1482 18.4697 25.3951 19.0312 24.5497 19.416C23.7043 19.8007 22.7863 19.9999 21.8574 20" stroke="#6547FE" stroke-width="2" stroke-linecap="round" stroke-linejoin="round"/>
<path d="M2.66699 24.6746C3.68216 23.2306 5.02986 22.052 6.5963 21.2384C8.16275 20.4248 9.90196 20.0001 11.6671 20C13.4322 19.9999 15.1715 20.4246 16.738 21.238C18.3045 22.0515 19.6523 23.23 20.6676 24.6739" stroke="#6547FE" stroke-width="2" stroke-linecap="round" stroke-linejoin="round"/>
<path d="M21.8574 20C23.6227 19.9987 25.3623 20.4228 26.929 21.2364C28.4956 22.05 29.8431 23.2291 30.8575 24.6739" stroke="#6547FE" stroke-width="2" stroke-linecap="round" stroke-linejoin="round"/>
</svg>
