<svg width="48" height="48" viewBox="0 0 48 48" fill="none" xmlns="http://www.w3.org/2000/svg">
<path fill-rule="evenodd" clip-rule="evenodd" d="M10.445 43.8823C10.2139 43.7225 10.0943 43.4369 10.1449 43.1603L12.5743 29.2251L2.22719 19.3548C2.02193 19.1643 1.94859 18.871 2.03666 18.5996C2.11719 18.3357 2.35193 18.1376 2.63053 18.101L16.9452 16.0624L23.3475 3.36855C23.5966 2.87715 24.4033 2.87715 24.6528 3.36855L31.0548 16.0624L45.3695 18.1013C45.6481 18.138 45.8828 18.3357 45.9633 18.5999C46.0514 18.871 45.978 19.1643 45.7728 19.3549L35.4256 29.2251L37.8571 43.1549C37.901 43.4314 37.7965 43.7172 37.572 43.8756C37.3381 44.0388 37.0339 44.0557 36.7865 43.9212L24.0084 37.2093L11.2365 43.9391C10.9883 44.0743 10.6811 44.0516 10.445 43.8823ZM24.348 35.7314L36.1437 41.9313L33.9141 29.0937C33.8702 28.8514 33.9508 28.6095 34.1269 28.4409L43.6674 19.3403L30.4673 17.4631C30.2326 17.4264 30.0201 17.2798 29.9173 17.067L23.9993 5.32605L18.0812 17.067C17.9784 17.2798 17.7659 17.4264 17.5312 17.4631L4.33118 19.3403L13.8721 28.4412C14.0482 28.6101 14.1288 28.8521 14.0849 29.094L11.8726 41.9335L23.649 35.728C23.8673 35.6138 24.1269 35.6134 24.348 35.7314Z" fill="#D19F33"/>
<circle cx="24" cy="23" r="4" fill="#151A1F"/>
<path d="M29.5 33.5C29.5 30.4624 27.0376 28 24 28C20.9624 28 18.5 30.4624 18.5 33.5V39H29.5V33.5Z" fill="#151A1F"/>
<line x1="20" y1="41.25" x2="28" y2="41.25" stroke="#D19F33" stroke-width="1.5"/>
<line x1="18" y1="44.25" x2="30" y2="44.25" stroke="#D19F33" stroke-width="1.5"/>
</svg>
