<svg width="48" height="48" viewBox="0 0 48 48" fill="none" xmlns="http://www.w3.org/2000/svg">
<path d="M24.4513 10.9215C16.988 10.9215 10.9227 16.9944 10.9227 24.4502C10.9227 31.9059 16.988 37.9788 24.4513 37.9788C31.9146 37.9788 37.98 31.9059 37.98 24.4502C37.98 16.9944 31.9146 10.9215 24.4513 10.9215ZM31.6441 23.5479C31.6063 22.3381 31.4861 21.173 31.2911 20.0757C33.7938 20.9326 35.4547 22.2179 35.9888 23.5479H31.6441ZM29.8404 23.5479H25.3529V19.0611C26.8037 19.1139 28.1487 19.2788 29.3592 19.5424C29.6221 20.7522 29.7876 22.0971 29.8404 23.5479ZM25.3529 17.2573V12.9131C26.676 13.4466 27.9681 15.1151 28.8251 17.6108C27.7285 17.4227 26.5634 17.3026 25.3529 17.2573ZM23.5493 12.9131V17.2573C22.3395 17.295 21.1743 17.4152 20.0771 17.6102C20.9339 15.1151 22.2268 13.4465 23.5493 12.9131ZM23.5493 19.0609V23.5478H19.0624C19.1153 22.097 19.2801 20.752 19.5437 19.5415C20.7535 19.2785 22.0985 19.1138 23.5493 19.0609ZM17.2586 23.5478H12.9144C13.4479 22.2172 15.1164 20.9326 17.6121 20.0756C17.424 21.1728 17.3039 22.3379 17.2586 23.5478ZM17.2586 25.3514C17.2963 26.5612 17.4165 27.7264 17.6115 28.8236C15.1089 27.9668 13.4479 26.6814 12.9139 25.3514H17.2586ZM19.0622 25.3514H23.5491V29.8383C22.0983 29.7854 20.7533 29.6206 19.5428 29.357C19.2799 28.1478 19.1151 26.8022 19.0622 25.3514ZM23.5491 31.6426V35.9867C22.2261 35.4532 20.9339 33.7848 20.0769 31.2891C21.1741 31.4772 22.3392 31.5973 23.5491 31.6426ZM25.3528 35.9867V31.6426C26.5626 31.6048 27.7277 31.4847 28.8249 31.2896C27.9687 33.7847 26.6758 35.4533 25.3528 35.9867ZM25.3528 29.8389V25.3514H29.8396C29.7868 26.8022 29.6219 28.1472 29.3583 29.3577C28.1491 29.6207 26.8035 29.7861 25.3528 29.8389ZM31.6439 25.3514H35.988C35.4546 26.682 33.7861 27.9666 31.2904 28.8236C31.4785 27.7271 31.5986 26.5619 31.6439 25.3514ZM35.3419 20.1353C34.1541 19.2785 32.6209 18.5644 30.8399 18.0687C30.3366 16.2801 29.6301 14.7545 28.7732 13.5667C31.764 14.7545 34.1465 17.137 35.3419 20.1353ZM20.1367 13.5591C19.2798 14.7469 18.5657 16.2801 18.07 18.0611C16.2815 18.5644 14.7558 19.2709 13.568 20.1278C14.7558 17.137 17.1383 14.7545 20.1367 13.5591ZM13.5604 28.7637C14.7482 29.6206 16.2815 30.3346 18.0624 30.8304C18.5657 32.6189 19.2722 34.1446 20.1291 35.3324C17.1383 34.1452 14.7558 31.7627 13.5604 28.7637ZM28.765 35.3406C29.6219 34.1528 30.3359 32.6195 30.8317 30.8386C32.6202 30.3353 34.1459 29.6288 35.3337 28.7719C34.1465 31.7627 31.764 34.1452 28.765 35.3406Z" fill="#D19F33"/>
<path d="M45.9233 2.56429C45.8333 2.34661 45.6603 2.16605 45.4344 2.07545C45.3218 2.03016 45.2092 2.00751 45.0884 2.00751H39.9849C39.4891 2.00751 39.0827 2.41329 39.0827 2.90967C39.0827 3.40542 39.4885 3.81184 39.9849 3.81184H42.9084L37.4368 9.28338C37.0839 9.63632 37.0839 10.2076 37.4368 10.5611C37.6098 10.7341 37.8426 10.8241 38.0754 10.8241C38.3081 10.8241 38.534 10.7341 38.7139 10.5611L44.1855 5.08959V8.01307C44.1855 8.50881 44.5912 8.91524 45.0876 8.91524C45.5834 8.91524 45.9898 8.50946 45.9898 8.01307V2.90955C45.9986 2.79001 45.9684 2.66922 45.9231 2.56416L45.9233 2.56429Z" fill="#151A1F"/>
<path d="M5.08284 3.80434H8.00632C8.50206 3.80434 8.90849 3.39856 8.90849 2.90217C8.90849 2.40642 8.5027 2 8.00632 2H2.90279C2.78263 2 2.67002 2.02265 2.55678 2.06795C2.3391 2.15791 2.15854 2.33092 2.06795 2.55678C2.02265 2.66939 2 2.782 2 2.90279V8.00632C2 8.50206 2.40578 8.90849 2.90217 8.90849C3.39791 8.90849 3.80434 8.50271 3.80434 8.00632V5.08284L9.27587 10.5544C9.44888 10.7274 9.68165 10.8173 9.91442 10.8173C10.1472 10.8173 10.3731 10.7274 10.553 10.5544C10.9059 10.2014 10.9059 9.63019 10.553 9.27663L5.08284 3.80434Z" fill="#151A1F"/>
<path d="M9.28313 37.4457L3.8116 42.9172V39.9938C3.8116 39.498 3.40582 39.0916 2.90943 39.0916C2.41369 39.0916 2.00726 39.4974 2.00726 39.9938V45.0973C2.00726 45.2174 2.02991 45.3301 2.07521 45.4433C2.16517 45.661 2.33818 45.8415 2.56404 45.9321C2.67666 45.9774 2.78927 46.0001 2.91006 46.0001H8.01358C8.50932 46.0001 8.91575 45.5943 8.91575 45.0979C8.91575 44.6022 8.50997 44.1957 8.01358 44.1957H5.0901L10.5616 38.7242C10.9146 38.3713 10.9146 37.8 10.5616 37.4464C10.2081 37.0923 9.63683 37.0923 9.28326 37.4458L9.28313 37.4457Z" fill="#151A1F"/>
<path d="M45.0971 39.0917C44.6013 39.0917 44.1949 39.4975 44.1949 39.9939V42.9173L38.7234 37.4458C38.3704 37.0929 37.7992 37.0929 37.4456 37.4458C37.0927 37.7987 37.0927 38.37 37.4456 38.7235L42.9171 44.1951H39.9937C39.4979 44.1951 39.0915 44.6009 39.0915 45.0972C39.0915 45.593 39.4973 45.9994 39.9937 45.9994H45.0972C45.2174 45.9994 45.33 45.9768 45.4432 45.9315C45.6609 45.8415 45.8414 45.6685 45.932 45.4426C45.9773 45.33 46 45.2174 46 45.0966V39.9931C45.9994 39.4974 45.5936 39.0916 45.0972 39.0916L45.0971 39.0917Z" fill="#151A1F"/>
</svg>
