<svg width="48" height="48" viewBox="0 0 48 48" fill="none" xmlns="http://www.w3.org/2000/svg">
<circle cx="24" cy="24" r="21" stroke="#D19F33" stroke-width="2"/>
<path d="M15.6548 33.4024C15.3692 33.889 14.8615 34.1534 14.3326 34.1534C14.0682 34.1534 13.8038 34.0899 13.5605 33.9419C12.8307 33.5188 12.5875 32.588 13.0105 31.8582L14.5124 29.3621C14.6711 29.0977 14.9461 28.939 15.2528 28.939H15.4749C16.5644 28.939 17.3259 29.5948 17.548 30.2294L15.6548 33.4024ZM28.3683 28.4948L18.5317 28.5053H11.9951C11.1278 28.5053 10.4297 27.7861 10.472 26.9188C10.5038 26.0938 11.223 25.4698 12.048 25.4698H16.7865L22.4028 15.9083L20.5836 12.8092C20.1711 12.1006 20.3509 11.1698 21.049 10.7256C21.7894 10.2496 22.7625 10.4929 23.1961 11.2333L24.1692 12.8938H24.1797L25.1528 11.2333C25.5864 10.4929 26.57 10.2496 27.2999 10.7256C27.9979 11.1698 28.1777 12.1006 27.7652 12.8092L25.9461 15.9083L24.1797 18.9227L20.3403 25.4698V25.4804H25.999C26.7076 25.4804 27.5961 25.8612 27.9557 26.4746L27.9874 26.5381C28.3047 27.0775 28.4845 27.4477 28.4845 27.9871C28.4739 28.2832 28.3683 28.4948 28.3683 28.4948ZM36.0049 28.5053H33.3396V28.5159L35.2857 31.8265C35.7088 32.5457 35.5078 33.4976 34.778 33.9418C34.5348 34.0899 34.2598 34.164 33.9848 34.164C33.4559 34.164 32.9482 33.8889 32.6626 33.413L29.7857 28.5158L27.9983 25.4697L25.6925 21.5245C25.0155 20.3716 24.9838 18.9331 25.629 17.7909C26.0838 16.987 26.4328 16.7755 26.4328 16.7755L31.5627 25.4591H35.9732C36.7982 25.4591 37.5068 26.0938 37.5492 26.9081C37.5809 27.786 36.8828 28.5053 36.0049 28.5053Z" fill="#151A1F"/>
</svg>
