<svg width="48" height="48" viewBox="0 0 48 48" fill="none" xmlns="http://www.w3.org/2000/svg">
<path d="M20.5682 33.1824V26.2302H12.2705C10.2739 26.2302 8.93581 27.8376 8.93581 29.8016C8.93581 31.6626 10.4369 33.1825 12.2705 33.1825L20.5682 33.1824ZM7.41672 14.7963C5.90129 14.7963 5.90129 12.459 7.41672 12.459H12.7847C14.3001 12.459 14.3001 14.7963 12.7847 14.7963H7.41672ZM7.41672 10.2656C5.90129 10.2656 5.90129 7.9283 7.41672 7.9283H12.7847C14.3001 7.9283 14.3001 10.2656 12.7847 10.2656H7.41672ZM17.546 14.8923H24.834V7.83236H17.546V14.8923ZM25.9867 17.2296H16.394C15.758 17.2296 15.2417 16.7061 15.2417 16.061V6.66393C15.2417 6.01895 15.758 5.49541 16.394 5.49541H25.9867C26.6227 5.49541 27.139 6.01891 27.139 6.66393V16.061C27.139 16.706 26.6228 17.2296 25.9867 17.2296ZM3.152 2H30.2668C30.9029 2 31.4192 2.52351 31.4192 3.16852V15.0914C30.3877 14.7321 29.8109 15.2557 29.1143 15.8848V4.33735H4.30458V29.9888H5.91357C5.93706 30.815 6.11707 31.6038 6.42302 32.3261H3.15232C2.51628 32.3261 2 31.8026 2 31.1576V3.16857C2 2.52359 2.51625 2.00004 3.15232 2.00004L3.152 2ZM39.4335 19.303C38.3622 18.2166 39.9919 16.5643 41.0629 17.6507C47.6457 24.3261 47.6457 35.2788 41.0629 41.954C39.9916 43.0404 38.3622 41.3877 39.4335 40.3018C45.1207 34.5346 45.1207 25.0704 39.4335 19.3033V19.303ZM34.3551 24.4532C33.2838 23.3668 34.9135 21.7145 35.9844 22.8009C39.7772 26.6469 39.7772 32.9577 35.9844 36.8033C34.9131 37.8897 33.2838 36.237 34.3551 35.1511C37.2525 32.2129 37.2525 27.3913 34.3551 24.4535V24.4532ZM36.8345 21.9381C35.7632 20.8517 37.393 19.1995 38.4639 20.2858C43.6223 25.5167 43.6172 34.0895 38.4592 39.3186C37.3886 40.399 35.767 38.7471 36.8389 37.6663C41.0972 33.3492 41.0904 26.2541 36.8342 21.9385L36.8345 21.9381ZM19.2583 35.5209V43.1862C19.2583 45.2405 17.6051 46.9167 15.5793 46.9167C13.5596 46.9167 11.8996 45.235 11.8996 43.1862V35.5082C8.97022 35.3129 6.63065 32.8228 6.63065 29.8028C6.63065 26.55 9.00803 23.8941 12.2702 23.8941H21.3349L30.052 16.0147C30.8017 15.3386 31.9679 15.8956 31.9679 16.8864L31.9686 25.1628C33.827 25.9237 35.0599 27.7647 35.0599 29.8028C35.0599 31.8416 33.8274 33.6809 31.9689 34.4423L31.9696 42.7193C31.9696 43.7611 30.7302 44.2688 30.0115 43.5544L21.1253 35.521L19.2583 35.5209ZM29.6647 19.4919L22.8721 25.6321V33.9733L29.6647 40.1139V19.4919ZM16.9532 35.5209H14.2041V43.1862C14.2041 43.9564 14.8184 44.5794 15.578 44.5794C16.3321 44.5794 16.9535 43.9516 16.9535 43.1862V35.5209H16.9532Z" fill="#D19F33"/>
<path d="M20.5682 33.1824V26.2302H12.2705C10.2739 26.2302 8.93584 27.8376 8.93584 29.8016C8.93584 31.6626 10.4369 33.1825 12.2705 33.1825L20.5682 33.1824ZM39.4335 19.303C38.3622 18.2166 39.9919 16.5644 41.0629 17.6507C47.6457 24.3261 47.6457 35.2788 41.0629 41.9541C39.9916 43.0404 38.3622 41.3878 39.4335 40.3018C45.1207 34.5346 45.1207 25.0701 39.4335 19.303ZM34.3551 24.4532C33.2838 23.3668 34.9135 21.7145 35.9845 22.8009C39.7772 26.6469 39.7772 32.9578 35.9845 36.8034C34.9132 37.8897 33.2838 36.2371 34.3551 35.1511C37.2525 32.2129 37.2525 27.391 34.3551 24.4532ZM36.8346 21.9381C35.7633 20.8518 37.393 19.1995 38.464 20.2858C43.6223 25.5167 43.6172 34.0895 38.4592 39.3186C37.3886 40.399 35.767 38.7471 36.839 37.6663C41.0972 33.3492 41.0908 26.2537 36.8346 21.9381ZM19.2584 35.521V43.1862C19.2584 45.2405 17.6051 46.9167 15.5793 46.9167C13.5596 46.9167 11.8996 45.2351 11.8996 43.1862V35.5082C8.97025 35.3129 6.63068 32.8228 6.63068 29.8028C6.63068 26.55 9.00806 23.8941 12.2702 23.8941H21.3349L30.052 16.0147C30.8017 15.3386 31.9679 15.8956 31.9679 16.8864L31.9686 25.1628C33.827 25.9237 35.0599 27.7648 35.0599 29.8028C35.0599 31.8416 33.8274 33.681 31.969 34.4423L31.9697 42.7193C31.9697 43.7611 30.7302 44.2688 30.0115 43.5544L21.1254 35.521L19.2584 35.521ZM29.6647 19.4919L22.8721 25.6321V33.9734L29.6647 40.1139V19.4919ZM16.9532 35.521H14.2042V43.1862C14.2042 43.9564 14.8184 44.5794 15.578 44.5794C16.3321 44.5794 16.9536 43.9516 16.9536 43.1862L16.9532 35.521Z" fill="#151A1F"/>
</svg>
