<?xml version="1.0" encoding="utf-8"?>
<!-- Generator: Adobe Illustrator 21.1.0, SVG Export Plug-In . SVG Version: 6.00 Build 0)  -->
<svg version="1.1" id="Layer_1" xmlns="http://www.w3.org/2000/svg" xmlns:xlink="http://www.w3.org/1999/xlink" x="0px" y="0px"
	 viewBox="0 0 200 200" style="enable-background:new 0 0 200 200;" xml:space="preserve">
<style type="text/css">
	.st0{fill:none;stroke:#0000FF;stroke-width:0.5;stroke-miterlimit:10;}
	.st1{fill:#0000FF;}
	.st2{font-family:'HKGrotesk-Regular';}
	.st3{font-size:28.1868px;}
</style>
<g>
	<path class="st0" d="M58.5,186.2c0-31.7,0.5-19.7,8-71.3c7.5-51.5,6.6-72.5,6.1-93.2V5.7"/>
	<path class="st0" d="M53.7,115c3.1-15,14.5-43,15-60.6c0.2-7.6,0.2-21.4,0.2-48.7"/>
	<path class="st0" d="M45.3,79c0,15,8.1,16.7,8.4,36"/>
	<path class="st0" d="M116.6,182.7v-1.6c0-29.1,5-37.9,5-52.3c0-17-5-19.4-5-41.7V55.1"/>
	<circle class="st0" cx="108.9" cy="141.5" r="6"/>
	<path class="st0" d="M104.8,182.7c0-15.3,7.7-27.6,9.1-32.6"/>
	<path class="st0" d="M111.6,174.8c-2.2,13.9-2.6,2.5-2.6,16.6"/>
	<path class="st0" d="M121.9,176.7v2.3c0-12.1,5.1-37.9,5.1-49.6c0-11.7-5.1-30.3-5.1-42.2V58.4"/>
	<g>
		<path class="st1" d="M82.3,128.9c-0.3-0.4-0.5-1.1-0.5-2v-5c0-0.9-1-1.4-1.8-1.7v-1.6c1.2-0.3,1.8-1,1.8-2.1v-5.9
			c0-1.8,0.7-2.9,2.9-2.9h0.7c0.2,0,0.4,0,0.7,0v1.2c-0.3-0.1-0.6-0.1-0.9-0.1c-1,0-1.5,0.3-1.5,0.9v7c0,1.3-0.8,2.1-2.5,2.8
			c1.5,0.5,2.5,1.2,2.5,2.3v5c0,1.4,0.6,2,1.8,2c0.2,0,0.4,0,0.6-0.1v1.2c-0.2,0-0.5,0-0.7,0h-1C83.4,130.1,82.8,129.5,82.3,128.9z"
			/>
		<path class="st1" d="M90.6,128.9c-0.3-0.4-0.5-1.1-0.5-2v-5c0-0.9-1-1.4-1.8-1.7v-1.6c1.2-0.3,1.8-1,1.8-2.1v-5.9
			c0-1.8,0.7-2.9,2.9-2.9h0.7c0.2,0,0.4,0,0.7,0v1.2c-0.3-0.1-0.6-0.1-0.9-0.1c-1,0-1.5,0.3-1.5,0.9v7c0,1.3-0.8,2.1-2.5,2.8
			c1.5,0.5,2.5,1.2,2.5,2.3v5c0,1.4,0.6,2,1.8,2c0.2,0,0.4,0,0.6-0.1v1.2c-0.2,0-0.5,0-0.7,0h-1C91.6,130.1,91,129.5,90.6,128.9z"/>
	</g>
	<g>
		<path class="st1" d="M78.3,30.3h5v1.3h-3.2V51h3.2v1.3h-5V30.3z"/>
		<path class="st1" d="M86,41.3c0-3.4,1-7.4,3.3-10.1H91c-2.2,2.9-3.4,6.5-3.4,10.2c0,3.6,1.1,7.2,3.3,10.1h-1.7
			C87.2,49.2,86,44.5,86,41.3z"/>
		<path class="st1" d="M96.2,41.4c0-3.5-1.3-7.4-3.4-10.2h1.8c2.2,2.6,3.3,6.5,3.3,10.1c0,3.2-1.2,7.9-3.3,10.2h-1.7
			C95.1,48.6,96.2,44.9,96.2,41.4z"/>
		<path class="st1" d="M103.6,47.4h2.7l-3.4,8.1h-1.3L103.6,47.4z"/>
		<path class="st1" d="M110,41.3c0-3.4,1-7.4,3.3-10.1h1.8c-2.2,2.9-3.4,6.5-3.4,10.2c0,3.6,1.1,7.2,3.3,10.1h-1.7
			C111.2,49.2,110,44.5,110,41.3z"/>
		<path class="st1" d="M120.2,41.4c0-3.5-1.3-7.4-3.4-10.2h1.8c2.2,2.6,3.3,6.5,3.3,10.1c0,3.2-1.2,7.9-3.3,10.2h-1.7
			C119,48.6,120.2,44.9,120.2,41.4z"/>
		<path class="st1" d="M124.5,51h3.2V31.6h-3.2v-1.3h5v22h-5V51z"/>
	</g>
	<g>
		<path class="st1" d="M125,94.4l11.4-6.6v1.6l-9.8,5.5v0.1l9.8,5.7v1.6L125,95.7V94.4z"/>
		<path class="st1" d="M138.2,108.4h-1.7l12.4-28.6h1.7L138.2,108.4z"/>
		<path class="st1" d="M162,95.7l-11.4,6.6v-1.6l9.8-5.5v-0.1l-9.8-5.7v-1.6l11.4,6.6V95.7z"/>
	</g>
	<text transform="matrix(1 0 0 1 101.1748 128.415)" class="st1 st2 st3">}}</text>
	<path class="st0" d="M100.2,187.9l0-2.7l1.3-17.7c1.4-9.9-2.4-9.2-2.4-27.7"/>
	<path class="st0" d="M96.4,187.9c0-0.7,0-4.8,0-16.4c0-11.7-2.1-6.7-2.1-23.9c0-4.7-3-10.3-3-15.6"/>
	<path class="st0" d="M78.8,55.5c0,7,0,2,0,7.8c0,18.2-9.9,78.1-9.9,105.1c0,23.4,0,14.2,0,31.6"/>
	<line class="st0" x1="78.8" y1="27.8" x2="78.8" y2="0"/>
	<path class="st0" d="M127,172.8c0-29.9,4.9-25.2,4.9-40.9s-0.5-25.8-4.9-30.8"/>
	<path class="st0" d="M136.3,111.4c-1.9,7.1-1.5,15.1-1.5,24.1s-4.1,14.5-4.1,36.8"/>
	<path class="st0" d="M147,104.2c-5.6,4.2-7.3,4.4-7.9,10.8c-0.6,6.4,0,15.1,0,26.6s0,31.3,0,31.3"/>
	<path class="st0" d="M113,104.2c-1.8-15.9-1.8-45.3,0-47.1"/>
	<path class="st0" d="M104.9,104.2c0-25.2,0-16.3,0-24.4s-5.5-13.5-3-21.3"/>
	<path class="st0" d="M99.2,104.2c0-28.4-2.7-40.5-7.2-49.1"/>
	<path class="st0" d="M91.2,104.2c0-19.6-1.6-37.7-4.3-47.1"/>
	<path class="st0" d="M83.4,101.1c0-20.7,0.2-31,0-42.7"/>
	<path class="st0" d="M140.7,83.7c-9.3-3.8-12.2-3.8-12.2-28.2"/>
	<path class="st0" d="M142.9,79.8c-5.4-5.4-8.3-15.4-8.3-48.5v-24"/>
	<path class="st0" d="M89,189.8c0-17.9,4.8-35.4-4.3-54.3"/>
	<path class="st0" d="M77.3,135.5c1.5,9.6,4.7,9.4,4.7,24.1s0,30.2,0,30.2"/>
	<line class="st0" x1="75.5" y1="155.8" x2="75.5" y2="186.2"/>
	<path class="st0" d="M53.7,143.8c0-15.3-4.3-32-8.4-44.9S41,92.3,41,78c0,0,2-8.1,4.3-11.5S55,49.7,55,43.5"/>
	<ellipse class="st0" cx="53.6" cy="81" rx="2.6" ry="8.3"/>
	<path class="st0" d="M58.5,70.4c1.2-8.7,5.9-8.8,5.9-41.7"/>
	<path class="st0" d="M104.9,36.5c0-15,7.5-16.2,7.5-30.9"/>
	<path class="st0" d="M115,25.7c1.7-4.9,1.7-13.8,1.7-18.4"/>
	<line class="st0" x1="128.5" y1="25" x2="128.5" y2="7.3"/>
	<line class="st0" x1="121.9" y1="25.7" x2="121.9" y2="7.3"/>
	<path class="st0" d="M47.3,72.7c2.6-5,10.5-9.9,11.2-18.2c0.7-8.3,1.2-22.8,1.2-40.6"/>
	<path class="st0" d="M41.8,63.8c5-9,9.5-17.9,11.7-25.9c2.2-8,1.5-16.8,1.5-21.8"/>
	<path class="st0" d="M100.5,31.4c0-7.4,7.3-15.1,7.3-23.6"/>
	<path class="st0" d="M93.2,28.7c-2.5-4.1-9.8-11.5-9.8-22.5"/>
	<path class="st0" d="M89.1,6.2c0,0-0.1,3.2,2.9,9.9c3,6.7,4.2,7.2,4.2,7.2c1.4-2.2,5.5-12.5,5.5-15.4"/>
</g>
</svg>
