<?xml version="1.0" encoding="utf-8"?>
<!-- Generator: Adobe Illustrator 21.1.0, SVG Export Plug-In . SVG Version: 6.00 Build 0)  -->
<svg version="1.1" id="Layer_1" xmlns="http://www.w3.org/2000/svg" xmlns:xlink="http://www.w3.org/1999/xlink" x="0px" y="0px"
	 viewBox="0 0 200 200" style="enable-background:new 0 0 200 200;" xml:space="preserve">
<style type="text/css">
	.st0{fill:none;stroke:#0000FF;stroke-miterlimit:10;}
	.st1{fill:none;stroke:#0000FF;stroke-width:0.5;stroke-miterlimit:10;}
	.st2{fill:#F9F9FA;stroke:#0000FF;stroke-width:0.5;stroke-miterlimit:10;}
</style>
<rect x="51" y="56.9" class="st0" width="98" height="62"/>
<path class="st1" d="M155.7,122.7H44.3c-3.5,0-6.4-2.9-6.4-6.4V59.5c0-3.5,2.9-6.4,6.4-6.4h111.4c3.5,0,6.4,2.9,6.4,6.4v56.7
	C162.1,119.8,159.3,122.7,155.7,122.7z"/>
<path class="st1" d="M190.4,151.3H9.6c-4.5,0-8.1-3.6-8.1-8.1V28.8c0-4.5,3.6-8.1,8.1-8.1h180.7c4.5,0,8.1,3.6,8.1,8.1v114.4
	C198.4,147.7,194.8,151.3,190.4,151.3z"/>
<circle class="st1" cx="44" cy="86.9" r="3.7"/>
<circle class="st1" cx="100" cy="48.7" r="1"/>
<g>
	<path class="st1" d="M120.8,151.3H81.2c0,0-0.2,19.2-4.4,22.3h48.4C121,170.5,120.8,151.3,120.8,151.3z"/>
	<path class="st1" d="M125.2,173.6H76.8c-4.2,3.1-10.2,5.6,4.4,5.6c14.6,0,19.8,0,19.8,0s5.2,0,19.8,0
		C135.4,179.2,129.4,176.7,125.2,173.6z"/>
</g>
<g>
	<path class="st1" d="M100.4,134.7h69.1c0.3-0.6,0.5-1.4,0.5-2.1V48c0-2.9-2.4-5.2-5.4-5.2h-130c-3,0-5.4,2.3-5.4,5.2v84.6
		c0,0.7,0.2,1.5,0.5,2.1h69.9H100.4z"/>
	<path class="st1" d="M169.6,134.7h-69.1h-0.9H29.7h-16v1h16.7h62c4.2,0,6.3,0,7.3,0c0.7,0,0.9,0,0.9,0c1,0,3.1,0,7.3,0H169h17.4v-1
		H169.6z"/>
	<path class="st1" d="M113.8,134.7c0,0-0.1,1-3.4,1H88.2c-3.3,0-3.4-1-3.4-1"/>
	<path class="st1" d="M186.4,135.7c0,0-7.1,2.7-28.1,2.7c-21.1,0-58.2,0-58.2,0h0.4c0,0-37.6,0-58.6,0c-21.1,0-28.1-2.7-28.1-2.7"/>
</g>
<g>
	<path class="st1" d="M114.4,134.1H85c-3.6,0-6.6-2.9-6.6-6.6v-77c0-3.6,2.9-6.6,6.6-6.6h29.4c3.6,0,6.6,2.9,6.6,6.6v77
		C121,131.2,118,134.1,114.4,134.1z"/>
	<circle class="st1" cx="99.7" cy="127.7" r="3.9"/>
	<g>
		<path class="st2" d="M123.8,111.1c-0.4-1-1.1-3.4-1.1-3.4s2,0.7,3.9-1.6c1.9-2.2,0.4-4.5-0.1-5.2c-0.5-0.7-4.5-4-4.5-4
			s-0.6-1-1.1-1.6v32.2c0,0.9-0.2,1.8-0.5,2.6l0.2,0.1c0,0,1.6-0.1,2.3-0.6c0.7-0.5,1.4-1.2,1.6-2.2c0.2-1,0.2-1.5-0.5-2.6
			c-0.8-1.1-1.7-2.3-1.7-2.3s1.9,0.1,2.9-0.5c1.1-0.6,1.7-2,1.9-2.7c0.2-0.8,0.2-0.8,0.2-0.8s-0.9-3.2-1.5-4.1
			C125.3,113.4,124.1,112.1,123.8,111.1z"/>
		<path class="st2" d="M82.2,133.5c-0.3-2.6-0.8-5.8-1.3-7.3c-0.6-1.5-1.7-4.1-2.5-5.5V97.4c0.5-1,1.7-3,2-3.9
			c0.4-1.2,0.4-2.8,0.3-4c-0.1-1.1-0.8-2.6-2.3-3.5l-0.1,0v0c-0.1,0-0.2,0-0.3,0l0,0v0c-0.1,0-0.2,0-0.3,0c-0.4,0.1-0.5,0.2-0.5,0.2
			L77,86c0,0-2.1,0.7-3.4,1.7s-3.3,2.6-4.5,3c-1.2,0.5-1.1,0-2,0.3c-0.9,0.3-1.7,0.7-4.4,1.3c-2.7,0.6-3.3,0.2-4.3,0.5
			c-1,0.3-3,1.1-3.6,1.9c-0.6,0.8-1.6,0.9-1.9,3.9c-0.4,3-1.2,11.2-1.6,13.8c-0.4,2.6-1.3,6.5-1.3,6.5s-2.4,3.1-2.9,4.7
			c-0.5,1.6-2.6,5.3-2.6,10.9c0,5.7,0.4,9.7,0.4,10.9c0,1.3-0.3,5.8-0.3,5.8h50.6c0,0,2.1-5.5,2.1-7.6c0-2.1,0.5-3.8,0.9-4.1
			s1-1.2,1.5-2.4c0.5-1.2,1.2-3,1.2-3l0-0.1H85C84,134.1,83.1,133.9,82.2,133.5z"/>
	</g>
</g>
<path class="st2" d="M170.1,94.4C170.1,94.3,170,94.3,170.1,94.4c-0.5-0.8-1-1.5-2.4-3.2c-1.7-2.1-2.8-3.2-3.3-3.7
	c-0.5-0.5-0.6-1.1-1.1-1.4c-0.4-0.3-1.2-1.1-1.6-1.5c-0.4-0.4-1.2-1.6-3-2.1c-1.8-0.6-2.7-1-3.8-1.1c-1.1-0.1-1.8,0.2-2.6,1
	c0,0-1.7-1.2-2.4-1.4c-0.7-0.2-1.8-0.7-3,0c-1,0.7-1.1,0.9-1.2,1.1c-0.1,0.2-0.2,0.7-0.2,0.7s-1.5-0.5-2.1-0.5s-1.2,0.1-1.8,0.7
	c-0.6,0.6-1.2,1.5-0.7,2.9c0.5,1.4,0.6,1.6,0.9,2s1,1.2,1,1.2s-0.2-0.1-0.6-0.4c-0.4-0.3-2.1-1.9-2.8-2.6s-1.7-1.8-2.5-2.4
	c-0.7-0.6-3.8-3.4-4.4-4.1s-2.9-3.2-3.5-3.5s-2.1-0.7-2.7,0c-0.7,0.7-1,1.2-1.1,1.7s0,1.4,1.8,3.3s1.8,1.9,3.2,3.6
	c1.4,1.6,2.8,3.3,3.2,3.8c0.5,0.5,2.9,2.8,3.8,3.7c0.9,0.9,2.4,2.4,2.7,2.7c0.3,0.3,0.4,0.4,0.4,0.4s-0.1,0.5,0.2,1
	c0.4,0.6,1,1.8,1.7,2.8c0.7,1.1,1.1,2.2,1.6,3c0.5,0.8,0.4,1.5,1.4,2.3c1,0.8,3.6,1.8,3.9,2s4.3,1.7,5.6,2.3c1.3,0.5,2.4,0.8,3.1,1
	c0.7,0.2,2.2,1,3.6,2.2c1.4,1.2,8.6,8.4,8.6,8.4l0-0.4V94.4z"/>
<rect x="51" y="56.9" class="st0" width="98" height="62"/>
<path class="st1" d="M155.7,122.7H44.3c-3.5,0-6.4-2.9-6.4-6.4V59.5c0-3.5,2.9-6.4,6.4-6.4h111.4c3.5,0,6.4,2.9,6.4,6.4v56.7
	C162.1,119.8,159.3,122.7,155.7,122.7z"/>
<path class="st1" d="M190.4,151.3H9.6c-4.5,0-8.1-3.6-8.1-8.1V28.8c0-4.5,3.6-8.1,8.1-8.1h180.7c4.5,0,8.1,3.6,8.1,8.1v114.4
	C198.4,147.7,194.8,151.3,190.4,151.3z"/>
<circle class="st1" cx="44" cy="86.9" r="3.7"/>
<circle class="st1" cx="100" cy="48.7" r="1"/>
<g>
	<path class="st1" d="M120.8,151.3H81.2c0,0-0.2,19.2-4.4,22.3h48.4C121,170.5,120.8,151.3,120.8,151.3z"/>
	<path class="st1" d="M125.2,173.6H76.8c-4.2,3.1-10.2,5.6,4.4,5.6c14.6,0,19.8,0,19.8,0s5.2,0,19.8,0
		C135.4,179.2,129.4,176.7,125.2,173.6z"/>
</g>
<g>
	<path class="st1" d="M100.4,134.7h69.1c0.3-0.6,0.5-1.4,0.5-2.1V48c0-2.9-2.4-5.2-5.4-5.2h-130c-3,0-5.4,2.3-5.4,5.2v84.6
		c0,0.7,0.2,1.5,0.5,2.1h69.9H100.4z"/>
	<path class="st1" d="M169.6,134.7h-69.1h-0.9H29.7h-16v1h16.7h62c4.2,0,6.3,0,7.3,0c0.7,0,0.9,0,0.9,0c1,0,3.1,0,7.3,0H169h17.4v-1
		H169.6z"/>
	<path class="st1" d="M113.8,134.7c0,0-0.1,1-3.4,1H88.2c-3.3,0-3.4-1-3.4-1"/>
	<path class="st1" d="M186.4,135.7c0,0-7.1,2.7-28.1,2.7c-21.1,0-58.2,0-58.2,0h0.4c0,0-37.6,0-58.6,0c-21.1,0-28.1-2.7-28.1-2.7"/>
</g>
<g>
	<path class="st1" d="M114.4,134.1H85c-3.6,0-6.6-2.9-6.6-6.6v-77c0-3.6,2.9-6.6,6.6-6.6h29.4c3.6,0,6.6,2.9,6.6,6.6v77
		C121,131.2,118,134.1,114.4,134.1z"/>
	<circle class="st1" cx="99.7" cy="127.7" r="3.9"/>
	<g>
		<path class="st2" d="M123.8,111.1c-0.4-1-1.1-3.4-1.1-3.4s2,0.7,3.9-1.6c1.9-2.2,0.4-4.5-0.1-5.2c-0.5-0.7-4.5-4-4.5-4
			s-0.6-1-1.1-1.6v32.2c0,0.9-0.2,1.8-0.5,2.6l0.2,0.1c0,0,1.6-0.1,2.3-0.6c0.7-0.5,1.4-1.2,1.6-2.2c0.2-1,0.2-1.5-0.5-2.6
			c-0.8-1.1-1.7-2.3-1.7-2.3s1.9,0.1,2.9-0.5c1.1-0.6,1.7-2,1.9-2.7c0.2-0.8,0.2-0.8,0.2-0.8s-0.9-3.2-1.5-4.1
			C125.3,113.4,124.1,112.1,123.8,111.1z"/>
		<path class="st2" d="M82.2,133.5c-0.3-2.6-0.8-5.8-1.3-7.3c-0.6-1.5-1.7-4.1-2.5-5.5V97.4c0.5-1,1.7-3,2-3.9
			c0.4-1.2,0.4-2.8,0.3-4c-0.1-1.1-0.8-2.6-2.3-3.5l-0.1,0v0c-0.1,0-0.2,0-0.3,0l0,0v0c-0.1,0-0.2,0-0.3,0c-0.4,0.1-0.5,0.2-0.5,0.2
			L77,86c0,0-2.1,0.7-3.4,1.7s-3.3,2.6-4.5,3c-1.2,0.5-1.1,0-2,0.3c-0.9,0.3-1.7,0.7-4.4,1.3c-2.7,0.6-3.3,0.2-4.3,0.5
			c-1,0.3-3,1.1-3.6,1.9c-0.6,0.8-1.6,0.9-1.9,3.9c-0.4,3-1.2,11.2-1.6,13.8c-0.4,2.6-1.3,6.5-1.3,6.5s-2.4,3.1-2.9,4.7
			c-0.5,1.6-2.6,5.3-2.6,10.9c0,5.7,0.4,9.7,0.4,10.9c0,1.3-0.3,5.8-0.3,5.8h50.6c0,0,2.1-5.5,2.1-7.6c0-2.1,0.5-3.8,0.9-4.1
			s1-1.2,1.5-2.4c0.5-1.2,1.2-3,1.2-3l0-0.1H85C84,134.1,83.1,133.9,82.2,133.5z"/>
	</g>
</g>
<path class="st2" d="M170.1,94.4C170.1,94.3,170,94.3,170.1,94.4c-0.5-0.8-1-1.5-2.4-3.2c-1.7-2.1-2.8-3.2-3.3-3.7
	c-0.5-0.5-0.6-1.1-1.1-1.4c-0.4-0.3-1.2-1.1-1.6-1.5c-0.4-0.4-1.2-1.6-3-2.1c-1.8-0.6-2.7-1-3.8-1.1c-1.1-0.1-1.8,0.2-2.6,1
	c0,0-1.7-1.2-2.4-1.4c-0.7-0.2-1.8-0.7-3,0c-1,0.7-1.1,0.9-1.2,1.1c-0.1,0.2-0.2,0.7-0.2,0.7s-1.5-0.5-2.1-0.5s-1.2,0.1-1.8,0.7
	c-0.6,0.6-1.2,1.5-0.7,2.9c0.5,1.4,0.6,1.6,0.9,2s1,1.2,1,1.2s-0.2-0.1-0.6-0.4c-0.4-0.3-2.1-1.9-2.8-2.6s-1.7-1.8-2.5-2.4
	c-0.7-0.6-3.8-3.4-4.4-4.1s-2.9-3.2-3.5-3.5s-2.1-0.7-2.7,0c-0.7,0.7-1,1.2-1.1,1.7s0,1.4,1.8,3.3s1.8,1.9,3.2,3.6
	c1.4,1.6,2.8,3.3,3.2,3.8c0.5,0.5,2.9,2.8,3.8,3.7c0.9,0.9,2.4,2.4,2.7,2.7c0.3,0.3,0.4,0.4,0.4,0.4s-0.1,0.5,0.2,1
	c0.4,0.6,1,1.8,1.7,2.8c0.7,1.1,1.1,2.2,1.6,3c0.5,0.8,0.4,1.5,1.4,2.3c1,0.8,3.6,1.8,3.9,2s4.3,1.7,5.6,2.3c1.3,0.5,2.4,0.8,3.1,1
	c0.7,0.2,2.2,1,3.6,2.2c1.4,1.2,8.6,8.4,8.6,8.4l0-0.4V94.4z"/>
</svg>
