<?xml version="1.0" encoding="utf-8"?>
<!-- Generator: Adobe Illustrator 21.1.0, SVG Export Plug-In . SVG Version: 6.00 Build 0)  -->
<svg version="1.1" xmlns="http://www.w3.org/2000/svg" xmlns:xlink="http://www.w3.org/1999/xlink" x="0px" y="0px"
	 viewBox="0 0 200 200" style="enable-background:new 0 0 200 200;" xml:space="preserve">
<style type="text/css">
	.st0{display:none;}
	.st1{fill:none;stroke:#0000FF;stroke-miterlimit:10;}
	.st2{fill:none;stroke:#0000FF;stroke-width:2;stroke-miterlimit:10;}
	.st3{fill:#0000FF;}
</style>
<g id="Layer_2" class="st0">
	
		<image style="display:inline;overflow:visible;" width="600" height="480" xlink:href="ldaniel/parti.png"  transform="matrix(0.628 0 0 0.628 -34.6221 -117.3441)">
	</image>
</g>
<g id="Layer_1">
	<g>
		<rect x="78.1" y="22.8" class="st1" width="33.8" height="43.2"/>
		
			<rect x="135.2" y="53.6" transform="matrix(0.3278 0.9448 -0.9448 0.3278 180.6521 -90.7492)" class="st1" width="37.8" height="55.9"/>
		<rect x="116.3" y="119.8" transform="matrix(0.866 0.5 -0.5 0.866 84.2899 -52.3654)" class="st1" width="47.2" height="22.7"/>
		<circle class="st2" cx="97.1" cy="97.7" r="22.9"/>
		
			<rect x="80.6" y="130.7" transform="matrix(0.9947 0.1026 -0.1026 0.9947 16.2232 -8.9907)" class="st1" width="29.8" height="45.1"/>
		<g>
			<g>
				<line class="st2" x1="13.3" y1="149.8" x2="71.3" y2="118.5"/>
				<g>
					<polygon class="st3" points="68.4,134.1 65.5,133.1 70.3,119.1 56,115.4 56.7,112.5 74.1,117 					"/>
				</g>
			</g>
		</g>
		<path class="st1" d="M74.1,134.9"/>
		
			<rect x="21.1" y="61.9" transform="matrix(0.9447 0.328 -0.328 0.9447 27.7058 -11.4032)" class="st1" width="53.1" height="29.1"/>
		<g>
			<g>
				<line class="st1" x1="114.2" y1="113.1" x2="131.9" y2="122.4"/>
				<g>
					<polygon class="st3" points="127.1,124.5 126.8,123.5 131.6,122.2 129.9,117.6 130.9,117.2 132.9,122.9 					"/>
				</g>
			</g>
		</g>
		<g>
			<g>
				<line class="st1" x1="97.1" y1="120.7" x2="97.1" y2="145.6"/>
				<g>
					<polygon class="st3" points="93,142.3 93.7,141.6 97.1,145.2 100.4,141.6 101.2,142.3 97.1,146.7 					"/>
				</g>
			</g>
		</g>
		<g>
			<g>
				<path class="st1" d="M119.3,92c0,0,17.9-4.1,22.5-5.1"/>
				<g>
					<polygon class="st3" points="139.4,91.7 138.6,91.1 141.5,87.1 137.2,84.5 137.7,83.7 142.9,86.7 					"/>
				</g>
			</g>
		</g>
		<g>
			<g>
				<line class="st1" x1="98.1" y1="74.8" x2="95.1" y2="51.1"/>
				<g>
					<polygon class="st3" points="99.6,53.9 98.9,54.6 95.2,51.5 92.3,55.5 91.5,54.9 95,50 					"/>
				</g>
			</g>
		</g>
		<g>
			<g>
				<line class="st1" x1="76.9" y1="86.7" x2="54.1" y2="78.3"/>
				<g>
					<polygon class="st3" points="58.6,75.6 59,76.6 54.4,78.5 56.7,82.9 55.8,83.3 53,78 					"/>
				</g>
			</g>
		</g>
	</g>
</g>
</svg>
